<svg width="1397" height="324" viewBox="0 0 1397 324" fill="none" xmlns="http://www.w3.org/2000/svg">
<path d="M618.574 127.002V37.4024H674.382V49.6904H633.166V74.6504H668.878V86.8104H633.166V127.002H618.574ZM678.632 127.002V63.5144H692.712L692.968 73.8824C695.102 70.1278 697.96 67.2264 701.544 65.1784C705.214 63.0451 709.438 61.9784 714.216 61.9784V77.2104H710.248C704.446 77.2104 700.136 78.6611 697.32 81.5624C694.504 84.4638 693.096 88.9864 693.096 95.1304V127.002H678.632ZM744.928 128.538C738.528 128.538 732.939 127.13 728.16 124.314C723.382 121.413 719.627 117.488 716.896 112.538C714.251 107.504 712.928 101.744 712.928 95.2584C712.928 88.5171 714.251 82.6718 716.896 77.7224C719.627 72.7731 723.382 68.9331 728.16 66.2024C733.024 63.3864 738.656 61.9784 745.056 61.9784C751.286 61.9784 756.704 63.3438 761.312 66.0744C765.92 68.7198 769.547 72.3891 772.192 77.0824C774.838 81.7758 776.16 87.1091 776.16 93.0824C776.16 94.2771 776.118 95.3438 776.032 96.2824C776.032 97.2211 775.947 98.2451 775.776 99.3544H727.52C727.776 102.682 728.63 105.669 730.08 108.314C731.531 110.874 733.494 112.88 735.968 114.33C738.528 115.781 741.43 116.506 744.672 116.506C748.171 116.506 751.115 115.738 753.504 114.202C755.979 112.666 757.899 110.448 759.264 107.546H774.496C773.302 111.386 771.382 114.885 768.736 118.042C766.176 121.2 762.891 123.76 758.88 125.722C754.955 127.6 750.304 128.538 744.928 128.538ZM727.648 89.2424H761.312C761.227 84.5491 759.563 80.8371 756.32 78.1064C753.078 75.3758 749.195 74.0104 744.672 74.0104C740.576 74.0104 736.864 75.2478 733.536 77.7224C730.294 80.1971 728.331 84.0371 727.648 89.2424ZM809.903 128.538C803.503 128.538 797.914 127.13 793.135 124.314C788.357 121.413 784.602 117.488 781.871 112.538C779.226 107.504 777.903 101.744 777.903 95.2584C777.903 88.5171 779.226 82.6718 781.871 77.7224C784.602 72.7731 788.357 68.9331 793.135 66.2024C797.999 63.3864 803.631 61.9784 810.031 61.9784C816.261 61.9784 821.679 63.3438 826.287 66.0744C830.895 68.7198 834.522 72.3891 837.167 77.0824C839.813 81.7758 841.135 87.1091 841.135 93.0824C841.135 94.2771 841.093 95.3438 841.007 96.2824C841.007 97.2211 840.922 98.2451 840.751 99.3544H792.495C792.751 102.682 793.605 105.669 795.055 108.314C796.506 110.874 798.469 112.88 800.943 114.33C803.503 115.781 806.405 116.506 809.647 116.506C813.146 116.506 816.09 115.738 818.479 114.202C820.954 112.666 822.874 110.448 824.239 107.546H839.471C838.277 111.386 836.357 114.885 833.711 118.042C831.151 121.2 827.866 123.76 823.855 125.722C819.93 127.6 815.279 128.538 809.903 128.538ZM792.623 89.2424H826.287C826.202 84.5491 824.538 80.8371 821.295 78.1064C818.053 75.3758 814.17 74.0104 809.647 74.0104C805.551 74.0104 801.839 75.2478 798.511 77.7224C795.269 80.1971 793.306 84.0371 792.623 89.2424ZM894.742 127.002C888.257 127.002 883.308 125.424 879.894 122.266C876.481 119.109 874.774 114.074 874.774 107.162V75.6744H865.686V63.5144H874.774V48.1544H889.366V63.5144H904.854V75.6744H889.366V107.29C889.366 110.192 890.049 112.197 891.414 113.306C892.78 114.33 894.828 114.842 897.558 114.842H904.854V127.002H894.742ZM937.953 128.538C931.553 128.538 925.964 127.13 921.185 124.314C916.407 121.413 912.652 117.488 909.921 112.538C907.276 107.504 905.953 101.744 905.953 95.2584C905.953 88.5171 907.276 82.6718 909.921 77.7224C912.652 72.7731 916.407 68.9331 921.185 66.2024C926.049 63.3864 931.681 61.9784 938.081 61.9784C944.311 61.9784 949.729 63.3438 954.337 66.0744C958.945 68.7198 962.572 72.3891 965.217 77.0824C967.863 81.7758 969.185 87.1091 969.185 93.0824C969.185 94.2771 969.143 95.3438 969.057 96.2824C969.057 97.2211 968.972 98.2451 968.801 99.3544H920.545C920.801 102.682 921.655 105.669 923.105 108.314C924.556 110.874 926.519 112.88 928.993 114.33C931.553 115.781 934.455 116.506 937.697 116.506C941.196 116.506 944.14 115.738 946.529 114.202C949.004 112.666 950.924 110.448 952.289 107.546H967.521C966.327 111.386 964.407 114.885 961.761 118.042C959.201 121.2 955.916 123.76 951.905 125.722C947.98 127.6 943.329 128.538 937.953 128.538ZM920.673 89.2424H954.337C954.252 84.5491 952.588 80.8371 949.345 78.1064C946.103 75.3758 942.22 74.0104 937.697 74.0104C933.601 74.0104 929.889 75.2478 926.561 77.7224C923.319 80.1971 921.356 84.0371 920.673 89.2424ZM973.232 127.002V63.5144H987.312L987.568 71.4504C989.702 68.2931 992.432 65.9464 995.76 64.4104C999.088 62.7891 1002.71 61.9784 1006.64 61.9784C1011.5 61.9784 1015.9 63.0024 1019.82 65.0504C1023.83 67.0131 1026.91 70.1278 1029.04 74.3944C1031.26 70.4691 1034.25 67.4398 1038 65.3064C1041.84 63.0878 1046.02 61.9784 1050.54 61.9784C1055.49 61.9784 1059.89 63.0024 1063.73 65.0504C1067.65 67.0131 1070.73 70.0424 1072.94 74.1384C1075.16 78.2344 1076.27 83.3971 1076.27 89.6264V127.002H1061.94V91.5464C1061.94 86.1704 1060.7 81.9891 1058.22 79.0024C1055.83 76.0158 1052.25 74.5224 1047.47 74.5224C1042.61 74.5224 1038.81 76.1438 1036.08 79.3864C1033.35 82.5438 1031.98 86.9384 1031.98 92.5704V127.002H1017.65V91.5464C1017.65 86.0851 1016.37 81.9038 1013.81 79.0024C1011.33 76.0158 1007.75 74.5224 1003.06 74.5224C998.875 74.5224 995.248 76.0158 992.176 79.0024C989.19 81.9038 987.696 86.4264 987.696 92.5704V127.002H973.232ZM1082.33 155.162V63.5144H1096.41L1096.8 72.8584C1099.1 69.6158 1102.13 67.0131 1105.88 65.0504C1109.64 63.0024 1113.95 61.9784 1118.81 61.9784C1125.04 61.9784 1130.37 63.4718 1134.81 66.4584C1139.33 69.3598 1142.79 73.3278 1145.18 78.3624C1147.65 83.3971 1148.89 88.9864 1148.89 95.1304C1148.89 101.274 1147.65 106.906 1145.18 112.026C1142.71 117.061 1139.21 121.072 1134.68 124.058C1130.25 127.045 1124.91 128.538 1118.68 128.538C1113.39 128.538 1108.87 127.472 1105.12 125.338C1101.45 123.12 1098.67 120.56 1096.8 117.658V155.162H1082.33ZM1115.48 115.866C1119.15 115.866 1122.4 114.97 1125.21 113.178C1128.03 111.301 1130.2 108.784 1131.74 105.626C1133.36 102.469 1134.17 98.9704 1134.17 95.1304C1134.17 90.9491 1133.32 87.3224 1131.61 84.2504C1129.99 81.1784 1127.77 78.8318 1124.96 77.2104C1122.14 75.5038 1118.98 74.6504 1115.48 74.6504C1111.9 74.6504 1108.7 75.5464 1105.88 77.3384C1103.07 79.0451 1100.85 81.4771 1099.23 84.6344C1097.61 87.7064 1096.8 91.2478 1096.8 95.2584C1096.8 99.0984 1097.56 102.597 1099.1 105.754C1100.72 108.826 1102.9 111.301 1105.63 113.178C1108.44 114.97 1111.73 115.866 1115.48 115.866ZM1153.43 127.002V37.4024H1167.9V127.002H1153.43ZM1195.13 128.538C1191.2 128.538 1187.53 127.813 1184.12 126.362C1180.79 124.826 1178.1 122.608 1176.05 119.706C1174.09 116.805 1173.11 113.349 1173.11 109.338C1173.11 104.56 1174.3 100.677 1176.69 97.6904C1179.08 94.7038 1182.33 92.5278 1186.42 91.1624C1190.52 89.7118 1195.04 88.9864 1199.99 88.9864H1215.86C1215.86 85.5731 1215.31 82.7998 1214.2 80.6664C1213.09 78.4478 1211.55 76.8264 1209.59 75.8024C1207.63 74.6931 1205.32 74.1384 1202.68 74.1384C1199.26 74.1384 1196.28 74.9064 1193.72 76.4424C1191.16 77.9784 1189.58 80.4958 1188.98 83.9944H1174.39C1174.82 79.3864 1176.35 75.4611 1179 72.2184C1181.73 68.8904 1185.18 66.3731 1189.37 64.6664C1193.55 62.8744 1198.03 61.9784 1202.81 61.9784C1208.95 61.9784 1214.03 63.1304 1218.04 65.4344C1222.13 67.6531 1225.21 70.7678 1227.25 74.7784C1229.39 78.7891 1230.45 83.4398 1230.45 88.7304V108.058C1230.54 110.362 1231.09 112.026 1232.12 113.05C1233.23 114.074 1234.93 114.629 1237.24 114.714V127.002C1233.65 127.002 1230.58 126.618 1228.02 125.85C1225.46 125.082 1223.33 123.93 1221.62 122.394C1220 120.858 1218.68 118.853 1217.65 116.378C1215.61 119.792 1212.58 122.693 1208.57 125.082C1204.64 127.386 1200.16 128.538 1195.13 128.538ZM1198.84 116.762C1202.17 116.762 1205.07 115.994 1207.54 114.458C1210.1 112.837 1212.11 110.704 1213.56 108.058C1215.09 105.328 1215.86 102.341 1215.86 99.0984V98.7144H1201.01C1198.79 98.7144 1196.66 99.0131 1194.61 99.6104C1192.57 100.208 1190.94 101.189 1189.75 102.554C1188.55 103.834 1187.96 105.626 1187.96 107.93C1187.96 111.002 1189.02 113.264 1191.16 114.714C1193.29 116.08 1195.85 116.762 1198.84 116.762ZM1262.59 127.002C1256.11 127.002 1251.16 125.424 1247.74 122.266C1244.33 119.109 1242.62 114.074 1242.62 107.162V75.6744H1233.54V63.5144H1242.62V48.1544H1257.22V63.5144H1272.7V75.6744H1257.22V107.29C1257.22 110.192 1257.9 112.197 1259.26 113.306C1260.63 114.33 1262.68 114.842 1265.41 114.842H1272.7V127.002H1262.59ZM1305.8 128.538C1299.4 128.538 1293.81 127.13 1289.04 124.314C1284.26 121.413 1280.5 117.488 1277.77 112.538C1275.13 107.504 1273.8 101.744 1273.8 95.2584C1273.8 88.5171 1275.13 82.6718 1277.77 77.7224C1280.5 72.7731 1284.26 68.9331 1289.04 66.2024C1293.9 63.3864 1299.53 61.9784 1305.93 61.9784C1312.16 61.9784 1317.58 63.3438 1322.19 66.0744C1326.8 68.7198 1330.42 72.3891 1333.07 77.0824C1335.71 81.7758 1337.04 87.1091 1337.04 93.0824C1337.04 94.2771 1336.99 95.3438 1336.91 96.2824C1336.91 97.2211 1336.82 98.2451 1336.65 99.3544H1288.4C1288.65 102.682 1289.5 105.669 1290.96 108.314C1292.41 110.874 1294.37 112.88 1296.84 114.33C1299.4 115.781 1302.3 116.506 1305.55 116.506C1309.05 116.506 1311.99 115.738 1314.38 114.202C1316.85 112.666 1318.77 110.448 1320.14 107.546H1335.37C1334.18 111.386 1332.26 114.885 1329.61 118.042C1327.05 121.2 1323.77 123.76 1319.76 125.722C1315.83 127.6 1311.18 128.538 1305.8 128.538ZM1288.52 89.2424H1322.19C1322.1 84.5491 1320.44 80.8371 1317.2 78.1064C1313.95 75.3758 1310.07 74.0104 1305.55 74.0104C1301.45 74.0104 1297.74 75.2478 1294.41 77.7224C1291.17 80.1971 1289.21 84.0371 1288.52 89.2424ZM1366.55 128.538C1361.69 128.538 1357.17 127.685 1352.99 125.978C1348.89 124.186 1345.52 121.669 1342.87 118.426C1340.31 115.184 1338.86 111.386 1338.52 107.034H1353.11C1353.63 110.021 1355.08 112.453 1357.47 114.33C1359.94 116.122 1362.93 117.018 1366.43 117.018C1369.58 117.018 1372.19 116.336 1374.23 114.97C1376.37 113.605 1377.43 111.728 1377.43 109.338C1377.43 107.29 1376.71 105.712 1375.26 104.602C1373.81 103.408 1372.02 102.512 1369.88 101.914C1367.75 101.232 1365.53 100.634 1363.23 100.122C1359.22 99.1838 1355.46 98.0318 1351.96 96.6664C1348.55 95.3011 1345.78 93.3811 1343.64 90.9064C1341.51 88.4318 1340.44 85.1891 1340.44 81.1784C1340.44 77.1678 1341.55 73.7544 1343.77 70.9384C1345.99 68.0371 1348.93 65.8184 1352.6 64.2824C1356.36 62.7464 1360.54 61.9784 1365.15 61.9784C1372.14 61.9784 1377.95 63.7278 1382.55 67.2264C1387.25 70.7251 1389.85 75.8451 1390.36 82.5864H1376.54C1376.2 79.6851 1374.96 77.4664 1372.83 75.9304C1370.78 74.3944 1368.09 73.6264 1364.76 73.6264C1361.86 73.6264 1359.43 74.1811 1357.47 75.2904C1355.59 76.3998 1354.65 78.1918 1354.65 80.6664C1354.65 82.3731 1355.33 83.7811 1356.7 84.8904C1358.15 85.9998 1359.94 86.9384 1362.07 87.7064C1364.29 88.3891 1366.47 88.9864 1368.6 89.4984C1372.95 90.5224 1376.84 91.7171 1380.25 93.0824C1383.66 94.4478 1386.35 96.3678 1388.31 98.8424C1390.36 101.317 1391.43 104.688 1391.51 108.954C1391.51 113.05 1390.4 116.549 1388.19 119.45C1385.97 122.352 1382.98 124.613 1379.23 126.234C1375.47 127.77 1371.25 128.538 1366.55 128.538Z" fill="#27272A"/>
<path d="M460.562 87.1469C429.08 107.853 399.667 126.962 370.484 146.537C368.415 148.133 367.951 151.828 364.958 158.502C380.577 153.119 393.21 149.786 404.926 144.592C435.71 130.585 465.576 115.874 495.902 100.936C499.578 99.1253 503.483 97.7794 506.701 95.039C517.502 86.83 517.744 76.8894 506.045 69.3649C500.309 65.8351 494.343 62.9967 488.147 60.8493C464.738 52.7375 441.099 45.3165 417.46 37.8958C413.329 36.4643 408.507 37.1065 401.39 36.568C412.15 60.7314 438.79 55.6975 453.005 71.8045C448.411 72.9116 444.506 74.2572 440.832 74.9118C299.825 101.616 178.055 166.218 71.403 260.347C60.1401 269.939 50.2537 281.163 40.136 291.924C34.8504 297.417 31.8551 305.247 39.4229 311.34C46.5324 317.66 52.9654 314.491 58.7139 307.615C122.641 229.91 207.883 182.723 296.79 140.663C342.968 118.495 390.516 101.429 440.353 90.1683C446.554 88.8471 452.984 87.9907 460.562 87.1469Z" fill="#27272A"/>
</svg>
