<svg width="1333" height="326" viewBox="0 0 1333 326" fill="none" xmlns="http://www.w3.org/2000/svg">
<path d="M8.576 127V37.4H40.576C46.8053 37.4 52.2667 38.424 56.96 40.472C61.6533 42.4347 65.3227 45.3787 67.968 49.304C70.6133 53.2293 71.936 58.0507 71.936 63.768C71.936 69.4853 70.5707 74.3493 67.84 78.36C65.1947 82.2853 61.5253 85.272 56.832 87.32C52.1387 89.2827 46.72 90.264 40.576 90.264H23.168V127H8.576ZM23.168 77.848H40.192C46.4213 77.848 50.7733 76.6107 53.248 74.136C55.808 71.576 57.088 68.12 57.088 63.768C57.088 59.5013 55.808 56.088 53.248 53.528C50.7733 50.968 46.4213 49.688 40.192 49.688H23.168V77.848ZM84.198 53.4C81.5527 53.4 79.2913 52.4613 77.414 50.584C75.5367 48.7067 74.598 46.4453 74.598 43.8C74.598 41.1547 75.5367 38.936 77.414 37.144C79.2913 35.2667 81.5527 34.328 84.198 34.328C86.8433 34.328 89.1047 35.2667 90.982 37.144C92.8593 38.936 93.798 41.1547 93.798 43.8C93.798 46.4453 92.8593 48.7067 90.982 50.584C89.1047 52.4613 86.8433 53.4 84.198 53.4ZM76.902 127V63.512H91.494V127H76.902ZM128.927 128.536C122.698 128.536 117.194 127.128 112.415 124.312C107.636 121.496 103.882 117.613 101.151 112.664C98.4203 107.629 97.055 101.827 97.055 95.256C97.055 88.7707 98.3777 83.0533 101.023 78.104C103.668 73.0693 107.38 69.144 112.159 66.328C116.938 63.4267 122.527 61.976 128.927 61.976C136.607 61.976 143.05 63.9387 148.255 67.864C153.546 71.704 157.044 77.208 158.751 84.376H143.391C142.623 81.3893 140.959 78.9573 138.399 77.08C135.839 75.2027 132.639 74.264 128.799 74.264C124.959 74.264 121.802 75.2453 119.327 77.208C116.852 79.0853 114.975 81.6453 113.695 84.888C112.5 88.0453 111.903 91.5013 111.903 95.256C111.903 99.1813 112.543 102.723 113.823 105.88C115.103 109.037 116.98 111.555 119.455 113.432C122.015 115.309 125.13 116.248 128.799 116.248C132.554 116.248 135.668 115.395 138.143 113.688C140.703 111.896 142.452 109.379 143.391 106.136H158.751C157.727 110.744 155.807 114.755 152.991 118.168C150.26 121.496 146.847 124.056 142.751 125.848C138.655 127.64 134.047 128.536 128.927 128.536ZM163.709 127V37.4H178.173V90.392L200.957 63.512H219.389L191.485 94.36L220.925 127H202.237L178.173 98.072V127H163.709ZM254.306 155.16L268.258 124.184L242.018 63.512H258.146L276.066 108.824L294.626 63.512H309.858L269.538 155.16H254.306ZM336.473 128.536C330.244 128.536 324.654 127.171 319.705 124.44C314.756 121.709 310.83 117.869 307.929 112.92C305.113 107.885 303.705 101.997 303.705 95.256C303.705 88.344 305.198 82.4133 308.185 77.464C311.172 72.5147 315.182 68.7173 320.217 66.072C325.252 63.3413 330.841 61.976 336.985 61.976C343.214 61.976 348.804 63.3413 353.753 66.072C358.788 68.7173 362.756 72.5147 365.657 77.464C368.644 82.4133 370.137 88.344 370.137 95.256C370.137 101.656 368.686 107.373 365.785 112.408C362.969 117.443 359.001 121.411 353.881 124.312C348.846 127.128 343.044 128.536 336.473 128.536ZM336.601 115.992C340.27 115.992 343.47 115.096 346.201 113.304C349.017 111.427 351.236 108.909 352.857 105.752C354.478 102.595 355.289 99.0107 355.289 95C355.289 90.8187 354.478 87.192 352.857 84.12C351.236 81.048 349.017 78.7013 346.201 77.08C343.47 75.3733 340.313 74.52 336.729 74.52C332.974 74.52 329.689 75.416 326.873 77.208C324.142 79 322.052 81.4747 320.601 84.632C319.15 87.704 318.425 91.2453 318.425 95.256C318.425 99.608 319.236 103.363 320.857 106.52C322.564 109.592 324.782 111.939 327.513 113.56C330.329 115.181 333.358 115.992 336.601 115.992ZM399.304 128.536C394.013 128.536 389.448 127.427 385.608 125.208C381.853 122.989 378.952 119.832 376.904 115.736C374.856 111.555 373.832 106.648 373.832 101.016V63.512H388.296V98.968C388.296 104.259 389.533 108.483 392.008 111.64C394.568 114.712 398.323 116.248 403.272 116.248C408.307 116.248 412.232 114.627 415.048 111.384C417.864 108.141 419.272 103.661 419.272 97.944V63.512H433.736V127H419.656L419.4 118.296C417.267 121.539 414.408 124.056 410.824 125.848C407.24 127.64 403.4 128.536 399.304 128.536ZM440.959 127V63.512H455.039L455.295 73.88C457.428 70.1253 460.287 67.224 463.871 65.176C467.54 63.0427 471.764 61.976 476.543 61.976V77.208H472.575C466.772 77.208 462.463 78.6587 459.647 81.56C456.831 84.4613 455.423 88.984 455.423 95.128V127H440.959ZM529.256 128.536C524.392 128.536 519.869 127.683 515.688 125.976C511.592 124.184 508.221 121.667 505.576 118.424C503.016 115.181 501.565 111.384 501.224 107.032H515.816C516.328 110.019 517.779 112.451 520.168 114.328C522.643 116.12 525.629 117.016 529.128 117.016C532.285 117.016 534.888 116.333 536.936 114.968C539.069 113.603 540.136 111.725 540.136 109.336C540.136 107.288 539.411 105.709 537.96 104.6C536.509 103.405 534.717 102.509 532.584 101.912C530.451 101.229 528.232 100.632 525.928 100.12C521.917 99.1813 518.163 98.0293 514.664 96.664C511.251 95.2987 508.477 93.3787 506.344 90.904C504.211 88.4293 503.144 85.1867 503.144 81.176C503.144 77.1653 504.253 73.752 506.472 70.936C508.691 68.0347 511.635 65.816 515.304 64.28C519.059 62.744 523.24 61.976 527.848 61.976C534.845 61.976 540.648 63.7253 545.256 67.224C549.949 70.7227 552.552 75.8427 553.064 82.584H539.24C538.899 79.6827 537.661 77.464 535.528 75.928C533.48 74.392 530.792 73.624 527.464 73.624C524.563 73.624 522.131 74.1787 520.168 75.288C518.291 76.3973 517.352 78.1893 517.352 80.664C517.352 82.3707 518.035 83.7787 519.4 84.888C520.851 85.9973 522.643 86.936 524.776 87.704C526.995 88.3867 529.171 88.984 531.304 89.496C535.656 90.52 539.539 91.7147 542.952 93.08C546.365 94.4453 549.053 96.3653 551.016 98.84C553.064 101.315 554.131 104.685 554.216 108.952C554.216 113.048 553.107 116.547 550.888 119.448C548.669 122.349 545.683 124.611 541.928 126.232C538.173 127.768 533.949 128.536 529.256 128.536ZM582.844 127C576.359 127 571.409 125.421 567.996 122.264C564.583 119.107 562.876 114.072 562.876 107.16V75.672H553.788V63.512H562.876V48.152H577.468V63.512H592.956V75.672H577.468V107.288C577.468 110.189 578.151 112.195 579.516 113.304C580.881 114.328 582.929 114.84 585.66 114.84H592.956V127H582.844ZM604.256 155.16L618.208 124.184L591.968 63.512H608.096L626.016 108.824L644.576 63.512H659.808L619.488 155.16H604.256ZM660.959 127V37.4H675.423V127H660.959ZM712.005 128.536C705.605 128.536 700.016 127.128 695.237 124.312C690.458 121.411 686.704 117.485 683.973 112.536C681.328 107.501 680.005 101.741 680.005 95.256C680.005 88.5147 681.328 82.6693 683.973 77.72C686.704 72.7707 690.458 68.9307 695.237 66.2C700.101 63.384 705.733 61.976 712.133 61.976C718.362 61.976 723.781 63.3413 728.389 66.072C732.997 68.7173 736.624 72.3867 739.269 77.08C741.914 81.7733 743.237 87.1067 743.237 93.08C743.237 94.2747 743.194 95.3413 743.109 96.28C743.109 97.2187 743.024 98.2427 742.853 99.352H694.597C694.853 102.68 695.706 105.667 697.157 108.312C698.608 110.872 700.57 112.877 703.045 114.328C705.605 115.779 708.506 116.504 711.749 116.504C715.248 116.504 718.192 115.736 720.581 114.2C723.056 112.664 724.976 110.445 726.341 107.544H741.573C740.378 111.384 738.458 114.883 735.813 118.04C733.253 121.197 729.968 123.757 725.957 125.72C722.032 127.597 717.381 128.536 712.005 128.536ZM694.725 89.24H728.389C728.304 84.5467 726.64 80.8347 723.397 78.104C720.154 75.3733 716.272 74.008 711.749 74.008C707.653 74.008 703.941 75.2453 700.613 77.72C697.37 80.1947 695.408 84.0347 694.725 89.24Z" fill="#27272A"/>
<path d="M870.059 94.1058C901.808 114.399 931.468 133.123 960.905 152.315C962.994 153.884 963.506 157.573 966.587 164.207C950.898 159.029 938.223 155.86 926.441 150.82C895.477 137.216 865.421 122.895 834.902 108.355C831.203 106.593 827.281 105.298 824.028 102.6C813.12 94.5323 812.748 84.5958 824.348 76.9191C830.037 73.3148 835.965 70.3987 842.133 68.1706C865.434 59.7539 888.974 52.025 912.514 44.2963C916.626 42.811 921.456 43.3902 928.566 42.7588C918.122 67.0606 891.418 62.3749 877.416 78.6661C882.023 79.7132 885.945 81.0077 889.628 81.6142C1030.97 106.476 1153.57 169.482 1261.45 262.211C1272.83 271.655 1282.87 282.749 1293.12 293.377C1298.48 298.8 1301.58 306.59 1294.09 312.782C1287.06 319.194 1280.59 316.109 1274.75 309.309C1209.82 232.445 1123.96 186.375 1034.52 145.479C988.052 123.916 940.285 107.472 890.306 96.8631C884.088 95.623 877.648 94.8506 870.059 94.1058Z" fill="#27272A"/>
</svg>
