<svg width="676" height="926" viewBox="0 0 676 926" fill="none" xmlns="http://www.w3.org/2000/svg">
<mask id="mask0_2_15" style="mask-type:luminance" maskUnits="userSpaceOnUse" x="0" y="81" width="676" height="845">
<path d="M0.100342 81.7635H675.045V925.548H0.100342V81.7635Z" fill="white"/>
</mask>
<g mask="url(#mask0_2_15)">
<path d="M656.945 617.126C647.939 503.561 634.459 390.499 625.133 276.979C619.93 213.709 615.668 150.371 605.313 87.6791C604.566 83.1513 599.527 81.7195 595.736 82.2407C441.461 103.36 287.393 126.049 133.414 149.184C90.8817 155.583 48.356 162.02 5.84284 168.494C-3.5585 169.932 -0.200873 183.572 8.6168 183.597L75.0789 910.055C65.9035 911.594 66.0353 926.358 75.7881 925.51C273.335 908.498 470.538 887.505 667.25 862.548C671.185 862.046 675.371 859.377 675.039 854.755C669.24 775.529 663.227 696.315 656.945 617.126Z" fill="#FB64B6"/>
</g>
<mask id="mask1_2_15" style="mask-type:luminance" maskUnits="userSpaceOnUse" x="0" y="0" width="592" height="923">
<path d="M0 0H591.243V922.559H0V0Z" fill="white"/>
</mask>
<g mask="url(#mask1_2_15)">
<path d="M539.171 180.194C532.261 122.13 524.329 64.1988 515.398 6.41171C514.764 2.27957 509.499 -0.0879285 505.821 0.967085C336.898 49.5416 169.902 105.395 5.84281 168.494C5.61687 168.589 5.43487 168.714 5.21521 168.815C2.2216 169.568 -0.182082 171.942 0.125438 176.011C14.7546 368.614 26.4153 561.512 47.2577 753.574C53.1382 807.839 59.7844 862.008 67.2088 916.078C67.7862 920.279 73.1521 922.496 76.7922 921.516C245.941 876.069 415.09 830.622 584.245 785.175C587.326 784.346 590.232 781.017 589.962 777.664C574.159 578.411 562.806 378.731 539.171 180.194Z" fill="#FDA5D5"/>
</g>
<path d="M40.6429 198.349C40.8374 203.04 41.032 207.725 41.2391 212.416C41.4399 217.446 33.6515 217.414 33.4381 212.416C33.3126 209.194 33.1683 205.966 33.0427 202.745C29.2709 204.924 25.5116 207.103 21.7523 209.269C23.2146 228.216 25.2355 247.112 27.953 265.939C28.6559 270.849 21.1499 272.953 20.4407 268.011C17.7232 249.184 15.6584 230.301 14.1522 211.367C13.0539 210.331 12.6774 208.516 13.807 207.285C13.1857 199.058 12.6523 190.813 12.2631 182.555C12.0309 177.537 19.8194 177.569 20.0516 182.555C20.3654 189.325 20.767 196.075 21.244 202.82C25.0723 200.591 28.9195 198.374 32.7603 196.151C32.4654 189.029 32.1641 181.896 31.8566 174.762C31.6432 169.738 39.4442 169.763 39.645 174.762C39.8898 180.426 40.122 186.097 40.3605 191.755C59.3075 180.809 78.2545 169.845 97.2015 158.886C100.465 157.009 103.402 162.051 100.151 163.935C80.313 175.408 60.4811 186.875 40.6429 198.349ZM254.621 850.108C213.269 857.895 171.81 865.048 130.251 871.61C130.564 873.249 130.853 874.888 131.179 876.515C132.158 881.426 124.646 883.511 123.673 878.593C123.291 876.666 122.945 874.738 122.581 872.81C117.316 873.632 112.057 874.48 106.791 875.278C107.469 880.389 108.122 885.514 108.856 890.626C109.565 895.536 102.059 897.634 101.35 892.698C96.4233 858.303 92.6013 823.789 89.934 789.15C89.5512 784.145 97.3396 784.182 97.7225 789.15C99.7935 816.015 102.567 842.805 106.019 869.513C111.184 868.734 116.337 867.905 121.502 867.101C119.343 855.025 117.579 842.893 116.174 830.697C115.603 825.717 123.404 825.774 123.962 830.697C125.318 842.497 127.069 854.228 129.171 865.902C170.567 859.358 211.875 852.237 253.07 844.475C256.742 843.778 258.305 849.411 254.621 850.108ZM482.813 44.5303C479.368 53.6298 475.935 62.7356 472.502 71.8288C470.732 76.4884 463.214 74.46 464.983 69.7565C468.423 60.657 471.862 51.5512 475.301 42.458C477.058 37.7984 484.589 39.833 482.813 44.5303ZM465.561 43.0985C461.394 54.8481 457.233 66.5914 453.072 78.341C451.409 83.0446 443.878 81.0036 445.566 76.2624C449.72 64.5253 453.881 52.7695 458.049 41.0199C459.718 36.3226 467.236 38.3573 465.561 43.0985ZM555.828 727.099C555.595 739.313 554.365 751.376 552.187 763.396C551.29 768.326 543.79 766.228 544.669 761.324C546.727 749.989 547.826 738.616 548.039 727.099C548.133 722.087 555.922 722.087 555.828 727.099ZM576.205 760.514C576.632 765.512 568.837 765.475 568.417 760.514C566.095 732.813 563.767 705.119 561.432 677.419C561.011 672.42 568.8 672.47 569.22 677.419C571.555 705.119 573.883 732.813 576.205 760.514ZM436.146 280.294C453.781 313.791 452.049 353.524 444.053 389.482C423.55 481.808 371.962 564.771 320.876 642.886C318.139 647.068 311.405 643.156 314.154 638.948C339.572 600.095 364.537 560.991 385.769 519.65C405.281 481.651 422.182 441.95 433.296 400.629C442.396 366.793 447.078 329.195 434.526 295.579C428.05 278.247 416.502 260.406 399.268 252.424C383.334 245.058 363.583 244.663 347.034 250.082C311.06 261.876 285.253 293.896 270.342 327.425C269.52 329.277 266.633 329.893 265.014 328.819C233.508 307.944 192.006 308.384 162.71 333.378C136.483 355.74 123.291 391.642 123.774 425.578C124.339 465.851 146.16 502.676 171.126 532.844C196.575 563.578 225.751 590.939 256.001 616.862C259.817 620.134 254.275 625.623 250.491 622.376C189.32 569.958 105.618 496.522 117.084 406.664C121.514 371.986 139.558 336.65 170.329 318.4C199.907 300.855 236.289 302.399 265.283 319.845C282.423 283.459 313.803 247.451 354.966 240.11C389.911 233.867 419.772 249.178 436.146 280.294ZM92.5825 893.897C93.6243 898.796 86.1183 900.874 85.0639 895.976C77.5767 860.928 70.5038 825.95 64.1211 790.682C63.2237 785.765 70.736 783.68 71.6271 788.603C78.0098 823.883 85.0827 858.856 92.5825 893.897ZM287.03 437.071C283.841 444.619 280.333 444.575 278.934 435.796C277.082 424.247 280.339 411.285 283.032 400.133C283.145 399.662 283.283 399.191 283.396 398.72C287.663 410.658 291.711 426.043 287.03 437.071ZM429.073 378.084C437.972 339.187 431.715 286.241 392.434 265.172C349.87 242.339 312.874 279.365 292.772 313.709C286.722 324.033 281.218 334.891 276.36 346.082C246.154 321.327 200.987 319.694 170.115 346.854C129.19 382.85 132.027 443.683 156.34 488.013C181.55 533.968 223.618 567.616 260.464 603.725C271.214 614.256 287.751 597.74 276.982 587.19C230.069 541.215 151.802 484.967 162.402 409.829C168.345 367.622 208.386 335.5 249.738 356.745C256.579 360.256 262.327 364.733 267.191 369.964C263.194 381.959 260.03 394.173 257.84 406.419C255.349 420.404 252.782 437.077 259.033 450.478C265.12 463.521 281.275 470.41 294.429 462.83C326.424 444.399 309.271 389.815 293.77 365.637C298.458 353.392 303.993 341.485 310.376 330.006C324.296 304.993 354.483 263.885 386.597 289.249C417.6 313.728 411.23 359.452 400.9 391.988C385.38 440.87 365.127 486.876 340.933 532.022C319.351 572.301 296.563 613.289 267.781 648.965C258.43 660.57 274.861 677.205 284.306 665.493C316.005 626.182 341.197 581.513 364.751 536.983C391.26 486.857 416.364 433.642 429.073 378.084Z" fill="#FB64B6"/>
</svg>
