<svg width="942" height="538" viewBox="0 0 942 538" fill="none" xmlns="http://www.w3.org/2000/svg">
<rect width="942" height="538" fill="white"/>
<path d="M60.5781 74.1445C61.112 74.0404 61.6589 73.9427 62.2188 73.8516C62.7917 73.7604 63.3516 73.6823 63.8984 73.6172V50.0039C63.3516 49.9388 62.8242 49.8737 62.3164 49.8086C61.8086 49.7305 61.2878 49.6263 60.7539 49.4961C60.6888 48.8971 60.7474 48.3047 60.9297 47.7188H72.1016C73.2734 47.7188 74.3997 47.8034 75.4805 47.9727C76.5742 48.1289 77.5898 48.4023 78.5273 48.793C79.4648 49.1706 80.3177 49.6784 81.0859 50.3164C81.8542 50.9544 82.5052 51.7422 83.0391 52.6797C83.5859 53.6172 84.0091 54.724 84.3086 56C84.6081 57.263 84.7578 58.7279 84.7578 60.3945V61.9961C84.7578 64.5482 84.4583 66.7161 83.8594 68.5C83.2734 70.2708 82.4076 71.7161 81.2617 72.8359C80.1159 73.9427 78.7096 74.75 77.043 75.2578C75.3763 75.7526 73.4688 76 71.3203 76H60.6953L60.5781 74.1445ZM71.6133 73.7539H72.5898C74.1003 73.7539 75.3893 73.487 76.457 72.9531C77.5247 72.4062 78.3906 71.6315 79.0547 70.6289C79.7318 69.6263 80.2266 68.4089 80.5391 66.9766C80.8516 65.5443 81.0078 63.9362 81.0078 62.1523V60.668C81.0078 58.6497 80.7995 56.9701 80.3828 55.6289C79.9792 54.2878 79.3477 53.207 78.4883 52.3867C77.6289 51.5664 76.5221 50.974 75.168 50.6094C73.8268 50.2448 72.2188 50.0299 70.3438 49.9648L67.3945 50.0039V73.6172L71.6133 73.7539ZM87.1523 67.6016C87.1393 65.7005 87.3281 64.0729 87.7188 62.7188C88.1224 61.3646 88.6888 60.2578 89.418 59.3984C90.1471 58.526 91.0326 57.888 92.0742 57.4844C93.1289 57.0807 94.3073 56.8789 95.6094 56.8789C97.0286 56.8789 98.194 57.0482 99.1055 57.3867C100.017 57.7122 100.733 58.2331 101.254 58.9492C101.775 59.6523 102.133 60.5573 102.328 61.6641C102.536 62.7708 102.634 64.099 102.621 65.6484L90.5117 65.7461C90.5117 66.6706 90.5247 67.5169 90.5508 68.2852C90.5898 69.0534 90.6745 69.75 90.8047 70.375C90.9479 70.987 91.1497 71.5273 91.4102 71.9961C91.6706 72.4518 92.0286 72.8359 92.4844 73.1484C92.9531 73.4479 93.526 73.6758 94.2031 73.832C94.8932 73.9883 95.7266 74.0664 96.7031 74.0664C97.1979 74.0664 97.7318 74.0208 98.3047 73.9297C98.8906 73.8385 99.4375 73.7344 99.9453 73.6172C100.466 73.5 100.909 73.3893 101.273 73.2852C101.651 73.168 101.892 73.0898 101.996 73.0508L102.66 74.7109C102.569 74.776 102.335 74.9128 101.957 75.1211C101.579 75.3164 101.085 75.5247 100.473 75.7461C99.8737 75.9544 99.1641 76.1432 98.3438 76.3125C97.5234 76.4818 96.625 76.5664 95.6484 76.5664C94.4375 76.5664 93.3112 76.4557 92.2695 76.2344C91.2409 76.026 90.349 75.6029 89.5938 74.9648C88.8385 74.3268 88.2461 73.4219 87.8164 72.25C87.3867 71.0781 87.1654 69.5286 87.1523 67.6016ZM99.2617 63.5391C99.2357 62.4323 99.0924 61.5664 98.832 60.9414C98.5846 60.3164 98.2721 59.8542 97.8945 59.5547C97.5299 59.2422 97.1328 59.0534 96.7031 58.9883C96.2734 58.9102 95.8633 58.8711 95.4727 58.8711C94.6263 58.8711 93.9102 58.9688 93.3242 59.1641C92.7513 59.3464 92.276 59.6393 91.8984 60.043C91.5208 60.4466 91.2344 60.9674 91.0391 61.6055C90.8438 62.2305 90.707 62.9792 90.6289 63.8516L99.2617 63.5391ZM104 71.6445C104.052 70.4987 104.332 69.5612 104.84 68.832C105.348 68.0898 106.025 67.5039 106.871 67.0742C107.717 66.6315 108.714 66.3125 109.859 66.1172C111.018 65.9219 112.281 65.7852 113.648 65.707L114.977 65.6094V63.5781C114.964 62.7057 114.892 62.0091 114.762 61.4883C114.632 60.9544 114.41 60.5443 114.098 60.2578C113.798 59.9714 113.388 59.7891 112.867 59.7109C112.359 59.6198 111.728 59.5742 110.973 59.5742C110.087 59.5742 109.234 59.6784 108.414 59.8867C107.594 60.082 106.773 60.3294 105.953 60.6289L105.152 58.7344C105.322 58.6432 105.602 58.5 105.992 58.3047C106.396 58.0964 106.884 57.888 107.457 57.6797C108.03 57.4714 108.681 57.2891 109.41 57.1328C110.152 56.9635 110.953 56.8789 111.812 56.8789C113.062 56.8789 114.098 56.9961 114.918 57.2305C115.751 57.4648 116.409 57.849 116.891 58.3828C117.372 58.9167 117.711 59.6198 117.906 60.4922C118.102 61.3646 118.199 62.4388 118.199 63.7148V73.9297H121.852L121.988 75.5508C121.832 75.6159 121.578 75.707 121.227 75.8242C120.875 75.9414 120.484 76.0521 120.055 76.1562C119.625 76.2734 119.182 76.3711 118.727 76.4492C118.271 76.5273 117.861 76.5664 117.496 76.5664C116.949 76.5664 116.52 76.4883 116.207 76.332C115.908 76.1888 115.68 76.013 115.523 75.8047C115.38 75.5833 115.289 75.349 115.25 75.1016C115.224 74.8411 115.211 74.6133 115.211 74.418V73.5H115.172C114.859 73.8125 114.475 74.151 114.02 74.5156C113.577 74.8802 113.082 75.2122 112.535 75.5117C111.988 75.8112 111.396 76.0586 110.758 76.2539C110.12 76.4622 109.456 76.5664 108.766 76.5664C108.232 76.5664 107.678 76.5013 107.105 76.3711C106.546 76.2539 106.031 76.026 105.562 75.6875C105.107 75.349 104.729 74.8867 104.43 74.3008C104.143 73.7148 104 72.9596 104 72.0352V71.6445ZM107.359 71.6055C107.359 72.0742 107.424 72.4583 107.555 72.7578C107.698 73.0573 107.887 73.2982 108.121 73.4805C108.355 73.6628 108.616 73.793 108.902 73.8711C109.202 73.9362 109.508 73.9688 109.82 73.9688C110.146 73.9688 110.504 73.9362 110.895 73.8711C111.285 73.793 111.702 73.6758 112.145 73.5195C112.587 73.3633 113.043 73.1549 113.512 72.8945C113.993 72.6341 114.482 72.3151 114.977 71.9375V67.3281L113.453 67.4648C111.37 67.6471 109.833 68.0703 108.844 68.7344C107.854 69.3854 107.359 70.3424 107.359 71.6055ZM122.215 74.4766C122.71 74.3073 123.23 74.1836 123.777 74.1055C124.337 74.0143 124.865 73.9232 125.359 73.832V59.5742H121.863L121.609 57.8945C121.896 57.7773 122.247 57.6602 122.664 57.543C123.081 57.4258 123.504 57.3216 123.934 57.2305C124.376 57.1263 124.799 57.0417 125.203 56.9766C125.62 56.9115 125.965 56.8789 126.238 56.8789C126.785 56.8789 127.208 56.9505 127.508 57.0938C127.82 57.237 128.048 57.4323 128.191 57.6797C128.348 57.9141 128.439 58.2005 128.465 58.5391C128.491 58.8646 128.504 59.2096 128.504 59.5742V61.0781C128.556 60.9609 128.647 60.7852 128.777 60.5508C128.908 60.3164 129.044 60.0755 129.188 59.8281C129.344 59.5677 129.493 59.3203 129.637 59.0859C129.793 58.8516 129.923 58.6758 130.027 58.5586C130.444 58.0247 130.965 57.6016 131.59 57.2891C132.228 56.9635 133.009 56.8008 133.934 56.8008C134.025 56.8008 134.148 56.8073 134.305 56.8203C134.461 56.8203 134.624 56.8268 134.793 56.8398C134.962 56.8529 135.132 56.8724 135.301 56.8984C135.47 56.9115 135.62 56.9375 135.75 56.9766C135.763 57.1328 135.77 57.3346 135.77 57.582C135.783 57.8294 135.783 58.0964 135.77 58.3828C135.77 58.6693 135.757 58.9622 135.73 59.2617C135.717 59.5482 135.691 59.8151 135.652 60.0625C135.431 60.0234 135.158 59.9844 134.832 59.9453C134.507 59.9062 134.135 59.8867 133.719 59.8867C133.224 59.8867 132.736 59.9323 132.254 60.0234C131.772 60.1016 131.336 60.2253 130.945 60.3945C130.451 60.6029 130.027 60.8828 129.676 61.2344C129.324 61.5859 128.979 61.9701 128.641 62.3867V73.832L133.152 74.2812C133.178 74.3464 133.191 74.457 133.191 74.6133C133.191 74.7695 133.191 74.8932 133.191 74.9844C133.191 75.1667 133.178 75.362 133.152 75.5703C133.139 75.7656 133.107 75.9089 133.055 76H122.391L122.215 74.4766Z" fill="black"/>
<path d="M501.977 471.242C502.224 471.151 502.491 471.079 502.777 471.027C503.077 470.962 503.376 470.904 503.676 470.852C503.988 470.799 504.294 470.76 504.594 470.734C504.893 470.695 505.173 470.656 505.434 470.617V447.062L502.289 446.457C502.263 446.392 502.243 446.288 502.23 446.145C502.23 445.988 502.23 445.865 502.23 445.773C502.23 445.578 502.257 445.376 502.309 445.168C502.361 444.96 502.419 444.81 502.484 444.719H521.254L521.527 445.031C521.54 445.526 521.521 446.086 521.469 446.711C521.417 447.323 521.352 447.935 521.273 448.547C521.195 449.146 521.104 449.712 521 450.246C520.909 450.767 520.831 451.171 520.766 451.457C520.466 451.522 520.121 451.548 519.73 451.535C519.34 451.522 518.956 451.496 518.578 451.457L518.227 447.004H508.93V457.863L517.895 457.766C517.96 458.143 517.966 458.573 517.914 459.055C517.875 459.536 517.816 459.986 517.738 460.402L508.93 460.168V470.617L514.164 471.242C514.19 471.307 514.203 471.405 514.203 471.535C514.203 471.652 514.203 471.757 514.203 471.848C514.203 472.03 514.177 472.245 514.125 472.492C514.073 472.74 514.027 472.909 513.988 473H502.152L501.977 471.242ZM522.496 471.477C522.991 471.307 523.512 471.184 524.059 471.105C524.618 471.014 525.146 470.923 525.641 470.832V456.574H522.145L521.891 454.895C522.177 454.777 522.529 454.66 522.945 454.543C523.362 454.426 523.785 454.322 524.215 454.23C524.658 454.126 525.081 454.042 525.484 453.977C525.901 453.911 526.246 453.879 526.52 453.879C527.066 453.879 527.49 453.951 527.789 454.094C528.102 454.237 528.329 454.432 528.473 454.68C528.629 454.914 528.72 455.201 528.746 455.539C528.772 455.865 528.785 456.21 528.785 456.574V458.078C528.837 457.961 528.928 457.785 529.059 457.551C529.189 457.316 529.326 457.076 529.469 456.828C529.625 456.568 529.775 456.32 529.918 456.086C530.074 455.852 530.204 455.676 530.309 455.559C530.725 455.025 531.246 454.602 531.871 454.289C532.509 453.964 533.29 453.801 534.215 453.801C534.306 453.801 534.43 453.807 534.586 453.82C534.742 453.82 534.905 453.827 535.074 453.84C535.243 453.853 535.413 453.872 535.582 453.898C535.751 453.911 535.901 453.938 536.031 453.977C536.044 454.133 536.051 454.335 536.051 454.582C536.064 454.829 536.064 455.096 536.051 455.383C536.051 455.669 536.038 455.962 536.012 456.262C535.999 456.548 535.973 456.815 535.934 457.062C535.712 457.023 535.439 456.984 535.113 456.945C534.788 456.906 534.417 456.887 534 456.887C533.505 456.887 533.017 456.932 532.535 457.023C532.053 457.102 531.617 457.225 531.227 457.395C530.732 457.603 530.309 457.883 529.957 458.234C529.605 458.586 529.26 458.97 528.922 459.387V470.832L533.434 471.281C533.46 471.346 533.473 471.457 533.473 471.613C533.473 471.77 533.473 471.893 533.473 471.984C533.473 472.167 533.46 472.362 533.434 472.57C533.421 472.766 533.388 472.909 533.336 473H522.672L522.496 471.477ZM536.551 463.723C536.551 462.355 536.74 461.079 537.117 459.895C537.508 458.697 538.1 457.655 538.895 456.77C539.702 455.871 540.711 455.168 541.922 454.66C543.146 454.139 544.598 453.879 546.277 453.879C547.957 453.879 549.331 454.139 550.398 454.66C551.466 455.168 552.306 455.871 552.918 456.77C553.543 457.655 553.973 458.697 554.207 459.895C554.441 461.079 554.559 462.355 554.559 463.723C554.559 465.09 554.363 466.372 553.973 467.57C553.582 468.755 552.983 469.797 552.176 470.695C551.382 471.581 550.372 472.284 549.148 472.805C547.924 473.312 546.479 473.566 544.812 473.566C543.133 473.566 541.759 473.312 540.691 472.805C539.624 472.284 538.784 471.581 538.172 470.695C537.56 469.797 537.137 468.755 536.902 467.57C536.668 466.372 536.551 465.09 536.551 463.723ZM540.145 463.723C540.145 465.311 540.268 466.607 540.516 467.609C540.763 468.612 541.115 469.4 541.57 469.973C542.039 470.546 542.605 470.943 543.27 471.164C543.934 471.372 544.689 471.477 545.535 471.477C546.29 471.477 546.993 471.372 547.645 471.164C548.309 470.943 548.882 470.546 549.363 469.973C549.858 469.4 550.242 468.612 550.516 467.609C550.802 466.607 550.945 465.311 550.945 463.723C550.945 462.147 550.822 460.858 550.574 459.855C550.327 458.84 549.969 458.046 549.5 457.473C549.044 456.9 548.478 456.509 547.801 456.301C547.137 456.079 546.382 455.969 545.535 455.969C544.793 455.969 544.09 456.079 543.426 456.301C542.775 456.509 542.202 456.9 541.707 457.473C541.225 458.046 540.841 458.84 540.555 459.855C540.281 460.858 540.145 462.147 540.145 463.723ZM556.66 471.477C557.142 471.307 557.643 471.184 558.164 471.105C558.698 471.014 559.212 470.923 559.707 470.832V456.574H556.348L556.113 454.895C556.27 454.829 556.523 454.738 556.875 454.621C557.24 454.504 557.643 454.393 558.086 454.289C558.542 454.172 558.997 454.074 559.453 453.996C559.922 453.918 560.345 453.879 560.723 453.879C561.27 453.879 561.686 453.951 561.973 454.094C562.272 454.237 562.487 454.413 562.617 454.621C562.76 454.829 562.839 455.057 562.852 455.305C562.878 455.552 562.891 455.773 562.891 455.969V456.301C563.451 455.897 563.984 455.546 564.492 455.246C565.013 454.934 565.527 454.68 566.035 454.484C566.556 454.276 567.083 454.126 567.617 454.035C568.151 453.931 568.711 453.879 569.297 453.879C570 453.879 570.625 453.924 571.172 454.016C571.732 454.094 572.214 454.237 572.617 454.445C573.034 454.641 573.379 454.908 573.652 455.246C573.926 455.572 574.147 455.988 574.316 456.496L574.746 456.203C575.306 455.826 575.853 455.493 576.387 455.207C576.934 454.908 577.474 454.66 578.008 454.465C578.542 454.27 579.082 454.126 579.629 454.035C580.189 453.931 580.768 453.879 581.367 453.879C582.396 453.879 583.255 453.97 583.945 454.152C584.648 454.335 585.208 454.66 585.625 455.129C586.055 455.598 586.361 456.242 586.543 457.062C586.725 457.87 586.816 458.905 586.816 460.168V470.891L589.863 471.418C589.889 471.496 589.902 471.587 589.902 471.691C589.902 471.796 589.902 471.893 589.902 471.984C589.902 472.167 589.876 472.362 589.824 472.57C589.772 472.766 589.72 472.909 589.668 473H581.035L580.879 471.477C581.348 471.307 581.79 471.19 582.207 471.125C582.624 471.06 583.06 470.982 583.516 470.891V460.363C583.516 459.673 583.464 459.087 583.359 458.605C583.268 458.111 583.105 457.714 582.871 457.414C582.637 457.102 582.331 456.874 581.953 456.73C581.576 456.587 581.113 456.516 580.566 456.516C579.98 456.516 579.44 456.542 578.945 456.594C578.464 456.646 578.001 456.724 577.559 456.828C577.116 456.932 576.68 457.069 576.25 457.238C575.833 457.395 575.397 457.583 574.941 457.805L574.629 457.961C574.707 458.612 574.746 459.348 574.746 460.168V470.891L577.793 471.418C577.819 471.496 577.832 471.587 577.832 471.691C577.845 471.796 577.852 471.893 577.852 471.984C577.852 472.167 577.826 472.362 577.773 472.57C577.721 472.766 577.669 472.909 577.617 473H568.984L568.848 471.477C569.303 471.307 569.74 471.19 570.156 471.125C570.586 471.06 571.029 470.982 571.484 470.891V460.363C571.484 459.686 571.432 459.107 571.328 458.625C571.237 458.13 571.074 457.727 570.84 457.414C570.605 457.102 570.299 456.874 569.922 456.73C569.544 456.587 569.082 456.516 568.535 456.516C567.949 456.516 567.409 456.542 566.914 456.594C566.432 456.646 565.97 456.724 565.527 456.828C565.085 456.932 564.648 457.062 564.219 457.219C563.802 457.375 563.359 457.557 562.891 457.766V470.832L566.074 471.418C566.1 471.496 566.113 471.587 566.113 471.691C566.113 471.796 566.113 471.893 566.113 471.984C566.113 472.167 566.087 472.362 566.035 472.57C565.996 472.766 565.951 472.909 565.898 473H556.836L556.66 471.477Z" fill="black"/>
<path d="M630.227 453.738L627.098 453.668C626.277 453.668 625.328 453.75 624.25 453.914C624.203 454.828 624.109 456.012 623.969 457.465C623.477 462.621 623.23 465.973 623.23 467.52C623.23 469.043 623.254 470.121 623.301 470.754L619.996 471L621.086 453.633L613.598 453.211C613.41 453.211 613.258 453.059 613.141 452.754C613.047 452.449 613 452.168 613 451.91C613 451.652 613.105 451.371 613.316 451.066C613.527 450.762 613.773 450.609 614.055 450.609C615.766 450.68 617.488 450.797 619.223 450.961C622.434 451.242 625.164 451.383 627.414 451.383L629.594 451.312C631.305 451.266 633.004 451.078 634.691 450.75C635.066 450.82 635.301 451.406 635.395 452.508C635.418 452.742 635.43 452.93 635.43 453.07C633.883 453.516 632.148 453.738 630.227 453.738ZM641.751 468.539C643.813 468.539 646.919 467.602 651.067 465.727C651.325 465.727 651.536 465.82 651.7 466.008C651.864 466.172 651.946 466.371 651.946 466.605C651.009 468.199 649.216 469.441 646.567 470.332C643.919 471.223 641.446 471.375 639.149 470.789C636.548 470.109 634.966 468.645 634.403 466.395C634.356 465.949 634.333 465.352 634.333 464.602C634.333 463.852 634.52 462.867 634.895 461.648C635.294 460.406 635.962 459.234 636.899 458.133C637.837 457.031 638.938 456.164 640.204 455.531C641.47 454.898 642.817 454.582 644.247 454.582C645.606 454.582 647.13 455.051 648.817 455.988C649.614 456.434 650.247 456.938 650.716 457.5C651.184 458.062 651.419 458.637 651.419 459.223C651.419 459.387 651.407 459.551 651.384 459.715C651.337 461.145 650.645 462.047 649.309 462.422C648.723 462.586 648.044 462.668 647.27 462.668L642.208 462.457C640.52 462.457 639.231 462.82 638.341 463.547C637.825 463.945 637.462 464.543 637.251 465.34C637.837 467.473 639.337 468.539 641.751 468.539ZM648.009 457.676C647.493 457.301 646.954 457.031 646.391 456.867C645.829 456.703 645.36 456.621 644.985 456.621C644.61 456.621 644.001 456.75 643.157 457.008C642.313 457.242 641.563 457.512 640.907 457.816C639.29 458.566 638.481 459.352 638.481 460.172C640.356 460.336 641.763 460.418 642.7 460.418C645.302 460.418 647.059 460.195 647.973 459.75C648.536 459.516 648.817 459.223 648.817 458.871C648.817 458.449 648.548 458.051 648.009 457.676ZM666.072 465.164C664.314 467.93 661.97 469.641 659.041 470.297C658.361 470.438 657.74 470.508 657.177 470.508C656.638 470.508 656.181 470.508 655.806 470.508C655.455 470.484 655.056 470.426 654.611 470.332C654.166 470.238 653.755 470.086 653.38 469.875C652.513 469.383 652.08 468.691 652.08 467.801C651.986 467.379 651.939 466.91 651.939 466.395C651.939 465.855 652.056 465.152 652.291 464.285C652.525 463.418 652.947 462.48 653.556 461.473C654.189 460.465 654.951 459.539 655.841 458.695C657.693 456.914 659.697 455.766 661.853 455.25C662.486 455.109 663.06 455.039 663.576 455.039C664.115 455.039 664.595 455.074 665.017 455.145C666.377 455.145 667.291 456.07 667.759 457.922C668.064 459.094 668.24 460.734 668.287 462.844C668.357 464.93 668.416 466.547 668.463 467.695C668.533 468.82 668.685 469.852 668.92 470.789H666.845C666.752 470.156 666.681 469.594 666.634 469.102C666.588 468.609 666.541 468.152 666.494 467.73C666.377 466.746 666.236 465.891 666.072 465.164ZM665.931 459.715C665.931 458.355 665.263 457.676 663.927 457.676C663.763 457.652 663.599 457.641 663.435 457.641C661.724 457.641 659.92 458.461 658.021 460.102C657.13 460.852 656.369 461.695 655.736 462.633C654.798 463.969 654.33 465.164 654.33 466.219C654.33 467.602 655.127 468.422 656.72 468.68C658.83 468.633 660.845 467.672 662.767 465.797C663.588 464.977 664.267 464.086 664.806 463.125C665.556 461.836 665.931 460.699 665.931 459.715ZM671.69 470.438C670.729 470.836 670.084 471.035 669.756 471.035C669.452 471.035 669.241 471 669.123 470.93C669.006 470.859 668.877 470.695 668.737 470.438C668.737 469.664 668.76 468.691 668.807 467.52C668.877 466.348 668.936 465.094 668.983 463.758C669.03 462.422 669.053 461.074 669.053 459.715C669.053 458.355 668.983 457.113 668.842 455.988C668.842 455.238 669.346 454.863 670.354 454.863C670.588 454.863 670.764 455.285 670.881 456.129C671.022 456.973 671.116 457.629 671.162 458.098C671.233 458.566 671.291 458.906 671.338 459.117C671.948 458.016 673.155 457.148 674.959 456.516C675.92 456.211 676.823 456.059 677.666 456.059C678.51 456.059 679.248 456.164 679.881 456.375C680.537 456.562 681.088 456.926 681.534 457.465C682.002 457.98 682.237 458.672 682.237 459.539C682.846 458.391 684.217 457.359 686.35 456.445C688.295 455.578 690.041 455.145 691.588 455.145C693.815 455.145 694.905 455.988 694.858 457.676L695.596 470.754C695.596 470.871 695.256 470.953 694.577 471C693.264 471.094 692.608 470.977 692.608 470.648C692.584 470.18 692.573 469.711 692.573 469.242L692.748 463.582C692.748 460.934 692.491 458.836 691.975 457.289C690.428 457.406 689.233 457.664 688.389 458.062C687.569 458.438 686.842 458.918 686.209 459.504C685.577 460.066 685.014 460.828 684.522 461.789C683.42 463.945 682.87 466.805 682.87 470.367C682.729 470.859 682.272 471.105 681.498 471.105C680.983 471.105 680.561 471.023 680.233 470.859C679.905 470.672 679.776 470.508 679.846 470.367C680.291 467.883 680.514 465.949 680.514 464.566C680.514 463.465 680.397 462.422 680.162 461.438C679.952 460.43 679.682 459.281 679.354 457.992C675.979 457.992 673.705 459.34 672.534 462.035C672.018 463.23 671.725 464.355 671.655 465.41C671.608 466.441 671.584 467.332 671.584 468.082C671.584 468.809 671.62 469.594 671.69 470.438ZM721.422 465.164C719.664 467.93 717.32 469.641 714.391 470.297C713.711 470.438 713.09 470.508 712.527 470.508C711.988 470.508 711.531 470.508 711.156 470.508C710.805 470.484 710.406 470.426 709.961 470.332C709.516 470.238 709.105 470.086 708.73 469.875C707.863 469.383 707.43 468.691 707.43 467.801C707.336 467.379 707.289 466.91 707.289 466.395C707.289 465.855 707.406 465.152 707.641 464.285C707.875 463.418 708.297 462.48 708.906 461.473C709.539 460.465 710.301 459.539 711.191 458.695C713.043 456.914 715.047 455.766 717.203 455.25C717.836 455.109 718.41 455.039 718.926 455.039C719.465 455.039 719.945 455.074 720.367 455.145C721.727 455.145 722.641 456.07 723.109 457.922C723.414 459.094 723.59 460.734 723.637 462.844C723.707 464.93 723.766 466.547 723.812 467.695C723.883 468.82 724.035 469.852 724.27 470.789H722.195C722.102 470.156 722.031 469.594 721.984 469.102C721.938 468.609 721.891 468.152 721.844 467.73C721.727 466.746 721.586 465.891 721.422 465.164ZM721.281 459.715C721.281 458.355 720.613 457.676 719.277 457.676C719.113 457.652 718.949 457.641 718.785 457.641C717.074 457.641 715.27 458.461 713.371 460.102C712.48 460.852 711.719 461.695 711.086 462.633C710.148 463.969 709.68 465.164 709.68 466.219C709.68 467.602 710.477 468.422 712.07 468.68C714.18 468.633 716.195 467.672 718.117 465.797C718.938 464.977 719.617 464.086 720.156 463.125C720.906 461.836 721.281 460.699 721.281 459.715ZM737.833 463.301C737.833 460.512 737.68 458.461 737.376 457.148C737.563 456.797 737.282 456.621 736.532 456.621C735.735 456.621 734.704 456.82 733.438 457.219C732.173 457.617 731.141 458.016 730.345 458.414C728.446 459.328 727.391 460.219 727.18 461.086V470.648H724.825C724.52 469.852 724.368 467.613 724.368 463.934C724.368 460.652 724.427 458.238 724.544 456.691C724.684 455.145 724.79 454.266 724.86 454.055C725.47 453.656 725.962 453.457 726.337 453.457C726.923 453.457 727.216 454.148 727.216 455.531C727.216 456.07 727.18 456.598 727.11 457.113C727.063 457.605 727.04 457.945 727.04 458.133C730.837 455.344 733.778 453.949 735.864 453.949C738.231 453.949 739.579 455.859 739.907 459.68C740.048 461.016 740.118 462.867 740.118 465.234L740.083 468.012C740.083 469.043 740.106 470.039 740.153 471C739.919 471.141 739.731 471.211 739.591 471.211C739.52 471.188 739.368 471.152 739.134 471.105C738.899 471.059 738.595 471.023 738.22 471C737.985 470.062 737.856 469.113 737.833 468.152C737.809 467.168 737.798 466.266 737.798 465.445L737.833 463.301ZM754.033 463.301C754.033 460.512 753.88 458.461 753.576 457.148C753.763 456.797 753.482 456.621 752.732 456.621C751.935 456.621 750.904 456.82 749.638 457.219C748.373 457.617 747.341 458.016 746.545 458.414C744.646 459.328 743.591 460.219 743.38 461.086V470.648H741.025C740.72 469.852 740.568 467.613 740.568 463.934C740.568 460.652 740.627 458.238 740.744 456.691C740.884 455.145 740.99 454.266 741.06 454.055C741.67 453.656 742.162 453.457 742.537 453.457C743.123 453.457 743.416 454.148 743.416 455.531C743.416 456.07 743.38 456.598 743.31 457.113C743.263 457.605 743.24 457.945 743.24 458.133C747.037 455.344 749.978 453.949 752.064 453.949C754.431 453.949 755.779 455.859 756.107 459.68C756.248 461.016 756.318 462.867 756.318 465.234L756.283 468.012C756.283 469.043 756.306 470.039 756.353 471C756.119 471.141 755.931 471.211 755.791 471.211C755.72 471.188 755.568 471.152 755.334 471.105C755.099 471.059 754.795 471.023 754.42 471C754.185 470.062 754.056 469.113 754.033 468.152C754.009 467.168 753.998 466.266 753.998 465.445L754.033 463.301ZM757.401 464.32C757.401 461.555 758.596 459.328 760.987 457.641C762.885 456.305 765.17 455.496 767.842 455.215C767.983 455.215 768.311 455.215 768.827 455.215C769.342 455.215 770.034 455.367 770.901 455.672C772.823 456.328 774.135 457.488 774.838 459.152C775.12 459.809 775.26 460.371 775.26 460.84C775.26 461.285 775.248 461.602 775.225 461.789C775.225 464.719 774.112 467.027 771.885 468.715C769.823 470.262 767.245 471.035 764.151 471.035C761.924 471.035 760.237 470.52 759.088 469.488C757.963 468.457 757.401 466.734 757.401 464.32ZM759.827 465.164C759.827 466.617 760.213 467.602 760.987 468.117C761.573 468.492 762.557 468.68 763.94 468.68C765.323 468.68 766.541 468.574 767.596 468.363C768.651 468.152 769.588 467.789 770.409 467.273C772.166 466.148 773.045 464.402 773.045 462.035C773.045 460.629 772.67 459.48 771.92 458.59C771.1 457.629 770.022 457.148 768.686 457.148C767.772 457.312 766.846 457.488 765.909 457.676C764.995 457.863 764.127 458.227 763.307 458.766C761.526 459.914 760.366 462.047 759.827 465.164ZM774.796 466.324C774.796 465.949 774.761 465.434 774.691 464.777C774.644 464.098 774.597 463.359 774.55 462.562C774.503 461.766 774.48 460.957 774.48 460.137C774.48 459.316 774.55 458.566 774.691 457.887C774.995 456.363 775.628 455.602 776.589 455.602C777.245 455.789 777.679 456.023 777.89 456.305C778.124 456.586 778.241 456.938 778.241 457.359C778.241 457.758 778.136 458.262 777.925 458.871C777.152 460.91 776.765 462.75 776.765 464.391C776.765 464.93 776.8 465.504 776.87 466.113C777.245 467.684 778.534 468.469 780.738 468.469C781.886 468.469 782.976 468.27 784.007 467.871C785.976 467.145 787.312 466.289 788.015 465.305C788.226 464.227 788.331 463.289 788.331 462.492C788.331 461.672 788.296 460.945 788.226 460.312C788.179 459.68 788.109 458.988 788.015 458.238C787.945 457.465 787.898 456.621 787.874 455.707C788.179 455.566 788.472 455.496 788.753 455.496C789.058 455.496 789.363 455.648 789.667 455.953C789.995 456.258 790.265 456.832 790.476 457.676C790.71 458.52 790.863 459.516 790.933 460.664C791.003 461.789 791.038 462.961 791.038 464.18C791.062 465.398 791.073 466.582 791.073 467.73C791.073 468.855 791.12 469.828 791.214 470.648C790.933 470.906 790.663 471.035 790.405 471.035C789.468 471.035 788.777 470.098 788.331 468.223C788.027 468.48 787.511 468.797 786.784 469.172C785.238 470.016 783.409 470.578 781.3 470.859C780.902 470.906 780.456 470.93 779.964 470.93C779.472 470.93 778.851 470.836 778.101 470.648C777.374 470.461 776.683 470.027 776.027 469.348C775.37 468.668 774.96 467.66 774.796 466.324ZM805.164 463.301C805.164 460.512 805.012 458.461 804.707 457.148C804.895 456.797 804.613 456.621 803.863 456.621C803.066 456.621 802.035 456.82 800.77 457.219C799.504 457.617 798.473 458.016 797.676 458.414C795.777 459.328 794.723 460.219 794.512 461.086V470.648H792.156C791.852 469.852 791.699 467.613 791.699 463.934C791.699 460.652 791.758 458.238 791.875 456.691C792.016 455.145 792.121 454.266 792.191 454.055C792.801 453.656 793.293 453.457 793.668 453.457C794.254 453.457 794.547 454.148 794.547 455.531C794.547 456.07 794.512 456.598 794.441 457.113C794.395 457.605 794.371 457.945 794.371 458.133C798.168 455.344 801.109 453.949 803.195 453.949C805.562 453.949 806.91 455.859 807.238 459.68C807.379 461.016 807.449 462.867 807.449 465.234L807.414 468.012C807.414 469.043 807.438 470.039 807.484 471C807.25 471.141 807.062 471.211 806.922 471.211C806.852 471.188 806.699 471.152 806.465 471.105C806.23 471.059 805.926 471.023 805.551 471C805.316 470.062 805.188 469.113 805.164 468.152C805.141 467.168 805.129 466.266 805.129 465.445L805.164 463.301ZM821.856 467.309C822.817 466.91 823.755 466.547 824.669 466.219C825.583 465.891 826.45 465.727 827.27 465.727C828.114 465.727 828.536 465.984 828.536 466.5C828.536 466.617 828.501 466.805 828.43 467.062C828.384 467.297 828.067 467.59 827.481 467.941C826.919 468.27 826.216 468.586 825.372 468.891C824.552 469.195 823.649 469.477 822.665 469.734C821.68 469.992 820.72 470.215 819.782 470.402C817.837 470.801 816.454 471 815.634 471C814.813 471 813.923 470.906 812.962 470.719C812.024 470.531 811.145 470.227 810.325 469.805C808.427 468.82 807.477 467.367 807.477 465.445C807.477 465.305 807.477 465.023 807.477 464.602C807.477 464.18 807.653 463.582 808.005 462.809C808.356 462.012 808.884 461.227 809.587 460.453C810.29 459.656 811.11 458.93 812.048 458.273C814.016 456.867 816.079 455.953 818.235 455.531C818.985 455.367 819.606 455.285 820.098 455.285C820.614 455.285 821.036 455.297 821.364 455.32C821.692 455.32 822.032 455.344 822.384 455.391C822.735 455.414 823.04 455.496 823.298 455.637C823.907 455.941 824.212 456.539 824.212 457.43C824.212 457.992 823.813 458.543 823.016 459.082C822.805 459.223 822.618 459.352 822.454 459.469C822.337 458.93 822.184 458.473 821.997 458.098C821.809 457.723 821.399 457.535 820.766 457.535C818.001 458.121 815.622 459 813.63 460.172C811.38 461.508 810.255 462.914 810.255 464.391C810.255 464.555 810.266 464.73 810.29 464.918C810.29 466.418 810.864 467.484 812.012 468.117C812.88 468.586 813.993 468.82 815.352 468.82C816.735 468.82 817.93 468.668 818.938 468.363C819.946 468.035 820.919 467.684 821.856 467.309ZM831.798 454.477C832.103 458.859 832.361 463.934 832.572 469.699C832.431 470.426 831.869 470.789 830.884 470.789C830.627 470.789 830.357 470.742 830.076 470.648C829.818 470.531 829.654 470.379 829.584 470.191V454.477H831.798ZM828.529 449.695C828.529 448.875 829.009 448.465 829.97 448.465C830.603 448.465 831.119 448.605 831.517 448.887C831.587 449.145 831.623 449.402 831.623 449.66C831.623 449.895 831.529 450.129 831.341 450.363C831.154 450.598 830.873 450.715 830.498 450.715C830.123 450.715 829.748 450.633 829.373 450.469C828.998 450.281 828.716 450.023 828.529 449.695ZM852.463 459.258C852.58 459.258 852.639 459.574 852.639 460.207C852.639 460.84 852.663 461.273 852.709 461.508L840.651 462.984L841.284 470.789L838.436 470.648C838.436 468.539 838.202 466.125 837.733 463.406L833.163 465.164C832.858 465.164 832.6 464.988 832.389 464.637C832.014 464.027 831.827 463.477 831.827 462.984L837.17 461.086C836.702 457.055 836.467 453.785 836.467 451.277C836.467 448.746 836.678 446.777 837.1 445.371C837.522 443.965 838.131 443.027 838.928 442.559C839.748 442.066 840.616 441.82 841.53 441.82C842.444 441.82 843.37 442.02 844.307 442.418C845.268 442.816 846.182 443.32 847.049 443.93C847.916 444.539 848.655 445.23 849.264 446.004C849.873 446.754 850.178 447.492 850.178 448.219C850.178 448.781 850.12 449.18 850.002 449.414C849.065 448.102 847.928 446.93 846.592 445.898C844.998 444.68 843.498 444.07 842.092 444.07C840.756 444.07 839.866 445.02 839.42 446.918C839.209 447.902 839.104 449.297 839.104 451.102C839.104 452.883 839.151 454.523 839.245 456.023C839.338 457.5 839.62 458.988 840.088 460.488C841.541 460.488 843.17 460.359 844.975 460.102C848.444 459.562 850.94 459.281 852.463 459.258ZM859.277 484.254C858.784 485.355 858.198 485.906 857.519 485.906C857.191 485.906 856.945 485.754 856.78 485.449C856.64 485.168 856.64 484.828 856.78 484.43C857.296 482.25 858.034 479.766 858.995 476.977C859.98 474.188 860.636 472.312 860.964 471.352C860.144 470.531 858.855 468.891 857.097 466.43C853.488 461.367 851.683 458.59 851.683 458.098C851.683 458.074 851.695 458.051 851.718 458.027L853.054 456.691C854.905 458.402 857.32 461.309 860.296 465.41C861.046 466.441 861.644 467.309 862.089 468.012C862.581 467.027 862.968 466.184 863.249 465.48C863.53 464.754 863.753 464.18 863.917 463.758C864.105 463.312 864.351 462.727 864.655 462C865.452 460.055 866.554 457.582 867.96 454.582C868.171 454.488 868.394 454.441 868.628 454.441C869.214 454.441 869.636 454.594 869.894 454.898C869.988 455.016 870.034 455.156 870.034 455.32C870.034 455.461 870.011 455.602 869.964 455.742L859.277 484.254Z" fill="black"/>
<path d="M630.227 453.738L627.098 453.668C626.277 453.668 625.328 453.75 624.25 453.914C624.203 454.828 624.109 456.012 623.969 457.465C623.477 462.621 623.23 465.973 623.23 467.52C623.23 469.043 623.254 470.121 623.301 470.754L619.996 471L621.086 453.633L613.598 453.211C613.41 453.211 613.258 453.059 613.141 452.754C613.047 452.449 613 452.168 613 451.91C613 451.652 613.105 451.371 613.316 451.066C613.527 450.762 613.773 450.609 614.055 450.609C615.766 450.68 617.488 450.797 619.223 450.961C622.434 451.242 625.164 451.383 627.414 451.383L629.594 451.312C631.305 451.266 633.004 451.078 634.691 450.75C635.066 450.82 635.301 451.406 635.395 452.508C635.418 452.742 635.43 452.93 635.43 453.07C633.883 453.516 632.148 453.738 630.227 453.738ZM641.751 468.539C643.813 468.539 646.919 467.602 651.067 465.727C651.325 465.727 651.536 465.82 651.7 466.008C651.864 466.172 651.946 466.371 651.946 466.605C651.009 468.199 649.216 469.441 646.567 470.332C643.919 471.223 641.446 471.375 639.149 470.789C636.548 470.109 634.966 468.645 634.403 466.395C634.356 465.949 634.333 465.352 634.333 464.602C634.333 463.852 634.52 462.867 634.895 461.648C635.294 460.406 635.962 459.234 636.899 458.133C637.837 457.031 638.938 456.164 640.204 455.531C641.47 454.898 642.817 454.582 644.247 454.582C645.606 454.582 647.13 455.051 648.817 455.988C649.614 456.434 650.247 456.938 650.716 457.5C651.184 458.062 651.419 458.637 651.419 459.223C651.419 459.387 651.407 459.551 651.384 459.715C651.337 461.145 650.645 462.047 649.309 462.422C648.723 462.586 648.044 462.668 647.27 462.668L642.208 462.457C640.52 462.457 639.231 462.82 638.341 463.547C637.825 463.945 637.462 464.543 637.251 465.34C637.837 467.473 639.337 468.539 641.751 468.539ZM648.009 457.676C647.493 457.301 646.954 457.031 646.391 456.867C645.829 456.703 645.36 456.621 644.985 456.621C644.61 456.621 644.001 456.75 643.157 457.008C642.313 457.242 641.563 457.512 640.907 457.816C639.29 458.566 638.481 459.352 638.481 460.172C640.356 460.336 641.763 460.418 642.7 460.418C645.302 460.418 647.059 460.195 647.973 459.75C648.536 459.516 648.817 459.223 648.817 458.871C648.817 458.449 648.548 458.051 648.009 457.676ZM666.072 465.164C664.314 467.93 661.97 469.641 659.041 470.297C658.361 470.438 657.74 470.508 657.177 470.508C656.638 470.508 656.181 470.508 655.806 470.508C655.455 470.484 655.056 470.426 654.611 470.332C654.166 470.238 653.755 470.086 653.38 469.875C652.513 469.383 652.08 468.691 652.08 467.801C651.986 467.379 651.939 466.91 651.939 466.395C651.939 465.855 652.056 465.152 652.291 464.285C652.525 463.418 652.947 462.48 653.556 461.473C654.189 460.465 654.951 459.539 655.841 458.695C657.693 456.914 659.697 455.766 661.853 455.25C662.486 455.109 663.06 455.039 663.576 455.039C664.115 455.039 664.595 455.074 665.017 455.145C666.377 455.145 667.291 456.07 667.759 457.922C668.064 459.094 668.24 460.734 668.287 462.844C668.357 464.93 668.416 466.547 668.463 467.695C668.533 468.82 668.685 469.852 668.92 470.789H666.845C666.752 470.156 666.681 469.594 666.634 469.102C666.588 468.609 666.541 468.152 666.494 467.73C666.377 466.746 666.236 465.891 666.072 465.164ZM665.931 459.715C665.931 458.355 665.263 457.676 663.927 457.676C663.763 457.652 663.599 457.641 663.435 457.641C661.724 457.641 659.92 458.461 658.021 460.102C657.13 460.852 656.369 461.695 655.736 462.633C654.798 463.969 654.33 465.164 654.33 466.219C654.33 467.602 655.127 468.422 656.72 468.68C658.83 468.633 660.845 467.672 662.767 465.797C663.588 464.977 664.267 464.086 664.806 463.125C665.556 461.836 665.931 460.699 665.931 459.715ZM671.69 470.438C670.729 470.836 670.084 471.035 669.756 471.035C669.452 471.035 669.241 471 669.123 470.93C669.006 470.859 668.877 470.695 668.737 470.438C668.737 469.664 668.76 468.691 668.807 467.52C668.877 466.348 668.936 465.094 668.983 463.758C669.03 462.422 669.053 461.074 669.053 459.715C669.053 458.355 668.983 457.113 668.842 455.988C668.842 455.238 669.346 454.863 670.354 454.863C670.588 454.863 670.764 455.285 670.881 456.129C671.022 456.973 671.116 457.629 671.162 458.098C671.233 458.566 671.291 458.906 671.338 459.117C671.948 458.016 673.155 457.148 674.959 456.516C675.92 456.211 676.823 456.059 677.666 456.059C678.51 456.059 679.248 456.164 679.881 456.375C680.537 456.562 681.088 456.926 681.534 457.465C682.002 457.98 682.237 458.672 682.237 459.539C682.846 458.391 684.217 457.359 686.35 456.445C688.295 455.578 690.041 455.145 691.588 455.145C693.815 455.145 694.905 455.988 694.858 457.676L695.596 470.754C695.596 470.871 695.256 470.953 694.577 471C693.264 471.094 692.608 470.977 692.608 470.648C692.584 470.18 692.573 469.711 692.573 469.242L692.748 463.582C692.748 460.934 692.491 458.836 691.975 457.289C690.428 457.406 689.233 457.664 688.389 458.062C687.569 458.438 686.842 458.918 686.209 459.504C685.577 460.066 685.014 460.828 684.522 461.789C683.42 463.945 682.87 466.805 682.87 470.367C682.729 470.859 682.272 471.105 681.498 471.105C680.983 471.105 680.561 471.023 680.233 470.859C679.905 470.672 679.776 470.508 679.846 470.367C680.291 467.883 680.514 465.949 680.514 464.566C680.514 463.465 680.397 462.422 680.162 461.438C679.952 460.43 679.682 459.281 679.354 457.992C675.979 457.992 673.705 459.34 672.534 462.035C672.018 463.23 671.725 464.355 671.655 465.41C671.608 466.441 671.584 467.332 671.584 468.082C671.584 468.809 671.62 469.594 671.69 470.438ZM721.422 465.164C719.664 467.93 717.32 469.641 714.391 470.297C713.711 470.438 713.09 470.508 712.527 470.508C711.988 470.508 711.531 470.508 711.156 470.508C710.805 470.484 710.406 470.426 709.961 470.332C709.516 470.238 709.105 470.086 708.73 469.875C707.863 469.383 707.43 468.691 707.43 467.801C707.336 467.379 707.289 466.91 707.289 466.395C707.289 465.855 707.406 465.152 707.641 464.285C707.875 463.418 708.297 462.48 708.906 461.473C709.539 460.465 710.301 459.539 711.191 458.695C713.043 456.914 715.047 455.766 717.203 455.25C717.836 455.109 718.41 455.039 718.926 455.039C719.465 455.039 719.945 455.074 720.367 455.145C721.727 455.145 722.641 456.07 723.109 457.922C723.414 459.094 723.59 460.734 723.637 462.844C723.707 464.93 723.766 466.547 723.812 467.695C723.883 468.82 724.035 469.852 724.27 470.789H722.195C722.102 470.156 722.031 469.594 721.984 469.102C721.938 468.609 721.891 468.152 721.844 467.73C721.727 466.746 721.586 465.891 721.422 465.164ZM721.281 459.715C721.281 458.355 720.613 457.676 719.277 457.676C719.113 457.652 718.949 457.641 718.785 457.641C717.074 457.641 715.27 458.461 713.371 460.102C712.48 460.852 711.719 461.695 711.086 462.633C710.148 463.969 709.68 465.164 709.68 466.219C709.68 467.602 710.477 468.422 712.07 468.68C714.18 468.633 716.195 467.672 718.117 465.797C718.938 464.977 719.617 464.086 720.156 463.125C720.906 461.836 721.281 460.699 721.281 459.715ZM737.833 463.301C737.833 460.512 737.68 458.461 737.376 457.148C737.563 456.797 737.282 456.621 736.532 456.621C735.735 456.621 734.704 456.82 733.438 457.219C732.173 457.617 731.141 458.016 730.345 458.414C728.446 459.328 727.391 460.219 727.18 461.086V470.648H724.825C724.52 469.852 724.368 467.613 724.368 463.934C724.368 460.652 724.427 458.238 724.544 456.691C724.684 455.145 724.79 454.266 724.86 454.055C725.47 453.656 725.962 453.457 726.337 453.457C726.923 453.457 727.216 454.148 727.216 455.531C727.216 456.07 727.18 456.598 727.11 457.113C727.063 457.605 727.04 457.945 727.04 458.133C730.837 455.344 733.778 453.949 735.864 453.949C738.231 453.949 739.579 455.859 739.907 459.68C740.048 461.016 740.118 462.867 740.118 465.234L740.083 468.012C740.083 469.043 740.106 470.039 740.153 471C739.919 471.141 739.731 471.211 739.591 471.211C739.52 471.188 739.368 471.152 739.134 471.105C738.899 471.059 738.595 471.023 738.22 471C737.985 470.062 737.856 469.113 737.833 468.152C737.809 467.168 737.798 466.266 737.798 465.445L737.833 463.301ZM754.033 463.301C754.033 460.512 753.88 458.461 753.576 457.148C753.763 456.797 753.482 456.621 752.732 456.621C751.935 456.621 750.904 456.82 749.638 457.219C748.373 457.617 747.341 458.016 746.545 458.414C744.646 459.328 743.591 460.219 743.38 461.086V470.648H741.025C740.72 469.852 740.568 467.613 740.568 463.934C740.568 460.652 740.627 458.238 740.744 456.691C740.884 455.145 740.99 454.266 741.06 454.055C741.67 453.656 742.162 453.457 742.537 453.457C743.123 453.457 743.416 454.148 743.416 455.531C743.416 456.07 743.38 456.598 743.31 457.113C743.263 457.605 743.24 457.945 743.24 458.133C747.037 455.344 749.978 453.949 752.064 453.949C754.431 453.949 755.779 455.859 756.107 459.68C756.248 461.016 756.318 462.867 756.318 465.234L756.283 468.012C756.283 469.043 756.306 470.039 756.353 471C756.119 471.141 755.931 471.211 755.791 471.211C755.72 471.188 755.568 471.152 755.334 471.105C755.099 471.059 754.795 471.023 754.42 471C754.185 470.062 754.056 469.113 754.033 468.152C754.009 467.168 753.998 466.266 753.998 465.445L754.033 463.301ZM757.401 464.32C757.401 461.555 758.596 459.328 760.987 457.641C762.885 456.305 765.17 455.496 767.842 455.215C767.983 455.215 768.311 455.215 768.827 455.215C769.342 455.215 770.034 455.367 770.901 455.672C772.823 456.328 774.135 457.488 774.838 459.152C775.12 459.809 775.26 460.371 775.26 460.84C775.26 461.285 775.248 461.602 775.225 461.789C775.225 464.719 774.112 467.027 771.885 468.715C769.823 470.262 767.245 471.035 764.151 471.035C761.924 471.035 760.237 470.52 759.088 469.488C757.963 468.457 757.401 466.734 757.401 464.32ZM759.827 465.164C759.827 466.617 760.213 467.602 760.987 468.117C761.573 468.492 762.557 468.68 763.94 468.68C765.323 468.68 766.541 468.574 767.596 468.363C768.651 468.152 769.588 467.789 770.409 467.273C772.166 466.148 773.045 464.402 773.045 462.035C773.045 460.629 772.67 459.48 771.92 458.59C771.1 457.629 770.022 457.148 768.686 457.148C767.772 457.312 766.846 457.488 765.909 457.676C764.995 457.863 764.127 458.227 763.307 458.766C761.526 459.914 760.366 462.047 759.827 465.164ZM774.796 466.324C774.796 465.949 774.761 465.434 774.691 464.777C774.644 464.098 774.597 463.359 774.55 462.562C774.503 461.766 774.48 460.957 774.48 460.137C774.48 459.316 774.55 458.566 774.691 457.887C774.995 456.363 775.628 455.602 776.589 455.602C777.245 455.789 777.679 456.023 777.89 456.305C778.124 456.586 778.241 456.938 778.241 457.359C778.241 457.758 778.136 458.262 777.925 458.871C777.152 460.91 776.765 462.75 776.765 464.391C776.765 464.93 776.8 465.504 776.87 466.113C777.245 467.684 778.534 468.469 780.738 468.469C781.886 468.469 782.976 468.27 784.007 467.871C785.976 467.145 787.312 466.289 788.015 465.305C788.226 464.227 788.331 463.289 788.331 462.492C788.331 461.672 788.296 460.945 788.226 460.312C788.179 459.68 788.109 458.988 788.015 458.238C787.945 457.465 787.898 456.621 787.874 455.707C788.179 455.566 788.472 455.496 788.753 455.496C789.058 455.496 789.363 455.648 789.667 455.953C789.995 456.258 790.265 456.832 790.476 457.676C790.71 458.52 790.863 459.516 790.933 460.664C791.003 461.789 791.038 462.961 791.038 464.18C791.062 465.398 791.073 466.582 791.073 467.73C791.073 468.855 791.12 469.828 791.214 470.648C790.933 470.906 790.663 471.035 790.405 471.035C789.468 471.035 788.777 470.098 788.331 468.223C788.027 468.48 787.511 468.797 786.784 469.172C785.238 470.016 783.409 470.578 781.3 470.859C780.902 470.906 780.456 470.93 779.964 470.93C779.472 470.93 778.851 470.836 778.101 470.648C777.374 470.461 776.683 470.027 776.027 469.348C775.37 468.668 774.96 467.66 774.796 466.324ZM805.164 463.301C805.164 460.512 805.012 458.461 804.707 457.148C804.895 456.797 804.613 456.621 803.863 456.621C803.066 456.621 802.035 456.82 800.77 457.219C799.504 457.617 798.473 458.016 797.676 458.414C795.777 459.328 794.723 460.219 794.512 461.086V470.648H792.156C791.852 469.852 791.699 467.613 791.699 463.934C791.699 460.652 791.758 458.238 791.875 456.691C792.016 455.145 792.121 454.266 792.191 454.055C792.801 453.656 793.293 453.457 793.668 453.457C794.254 453.457 794.547 454.148 794.547 455.531C794.547 456.07 794.512 456.598 794.441 457.113C794.395 457.605 794.371 457.945 794.371 458.133C798.168 455.344 801.109 453.949 803.195 453.949C805.562 453.949 806.91 455.859 807.238 459.68C807.379 461.016 807.449 462.867 807.449 465.234L807.414 468.012C807.414 469.043 807.438 470.039 807.484 471C807.25 471.141 807.062 471.211 806.922 471.211C806.852 471.188 806.699 471.152 806.465 471.105C806.23 471.059 805.926 471.023 805.551 471C805.316 470.062 805.188 469.113 805.164 468.152C805.141 467.168 805.129 466.266 805.129 465.445L805.164 463.301ZM821.856 467.309C822.817 466.91 823.755 466.547 824.669 466.219C825.583 465.891 826.45 465.727 827.27 465.727C828.114 465.727 828.536 465.984 828.536 466.5C828.536 466.617 828.501 466.805 828.43 467.062C828.384 467.297 828.067 467.59 827.481 467.941C826.919 468.27 826.216 468.586 825.372 468.891C824.552 469.195 823.649 469.477 822.665 469.734C821.68 469.992 820.72 470.215 819.782 470.402C817.837 470.801 816.454 471 815.634 471C814.813 471 813.923 470.906 812.962 470.719C812.024 470.531 811.145 470.227 810.325 469.805C808.427 468.82 807.477 467.367 807.477 465.445C807.477 465.305 807.477 465.023 807.477 464.602C807.477 464.18 807.653 463.582 808.005 462.809C808.356 462.012 808.884 461.227 809.587 460.453C810.29 459.656 811.11 458.93 812.048 458.273C814.016 456.867 816.079 455.953 818.235 455.531C818.985 455.367 819.606 455.285 820.098 455.285C820.614 455.285 821.036 455.297 821.364 455.32C821.692 455.32 822.032 455.344 822.384 455.391C822.735 455.414 823.04 455.496 823.298 455.637C823.907 455.941 824.212 456.539 824.212 457.43C824.212 457.992 823.813 458.543 823.016 459.082C822.805 459.223 822.618 459.352 822.454 459.469C822.337 458.93 822.184 458.473 821.997 458.098C821.809 457.723 821.399 457.535 820.766 457.535C818.001 458.121 815.622 459 813.63 460.172C811.38 461.508 810.255 462.914 810.255 464.391C810.255 464.555 810.266 464.73 810.29 464.918C810.29 466.418 810.864 467.484 812.012 468.117C812.88 468.586 813.993 468.82 815.352 468.82C816.735 468.82 817.93 468.668 818.938 468.363C819.946 468.035 820.919 467.684 821.856 467.309ZM831.798 454.477C832.103 458.859 832.361 463.934 832.572 469.699C832.431 470.426 831.869 470.789 830.884 470.789C830.627 470.789 830.357 470.742 830.076 470.648C829.818 470.531 829.654 470.379 829.584 470.191V454.477H831.798ZM828.529 449.695C828.529 448.875 829.009 448.465 829.97 448.465C830.603 448.465 831.119 448.605 831.517 448.887C831.587 449.145 831.623 449.402 831.623 449.66C831.623 449.895 831.529 450.129 831.341 450.363C831.154 450.598 830.873 450.715 830.498 450.715C830.123 450.715 829.748 450.633 829.373 450.469C828.998 450.281 828.716 450.023 828.529 449.695ZM852.463 459.258C852.58 459.258 852.639 459.574 852.639 460.207C852.639 460.84 852.663 461.273 852.709 461.508L840.651 462.984L841.284 470.789L838.436 470.648C838.436 468.539 838.202 466.125 837.733 463.406L833.163 465.164C832.858 465.164 832.6 464.988 832.389 464.637C832.014 464.027 831.827 463.477 831.827 462.984L837.17 461.086C836.702 457.055 836.467 453.785 836.467 451.277C836.467 448.746 836.678 446.777 837.1 445.371C837.522 443.965 838.131 443.027 838.928 442.559C839.748 442.066 840.616 441.82 841.53 441.82C842.444 441.82 843.37 442.02 844.307 442.418C845.268 442.816 846.182 443.32 847.049 443.93C847.916 444.539 848.655 445.23 849.264 446.004C849.873 446.754 850.178 447.492 850.178 448.219C850.178 448.781 850.12 449.18 850.002 449.414C849.065 448.102 847.928 446.93 846.592 445.898C844.998 444.68 843.498 444.07 842.092 444.07C840.756 444.07 839.866 445.02 839.42 446.918C839.209 447.902 839.104 449.297 839.104 451.102C839.104 452.883 839.151 454.523 839.245 456.023C839.338 457.5 839.62 458.988 840.088 460.488C841.541 460.488 843.17 460.359 844.975 460.102C848.444 459.562 850.94 459.281 852.463 459.258ZM859.277 484.254C858.784 485.355 858.198 485.906 857.519 485.906C857.191 485.906 856.945 485.754 856.78 485.449C856.64 485.168 856.64 484.828 856.78 484.43C857.296 482.25 858.034 479.766 858.995 476.977C859.98 474.188 860.636 472.312 860.964 471.352C860.144 470.531 858.855 468.891 857.097 466.43C853.488 461.367 851.683 458.59 851.683 458.098C851.683 458.074 851.695 458.051 851.718 458.027L853.054 456.691C854.905 458.402 857.32 461.309 860.296 465.41C861.046 466.441 861.644 467.309 862.089 468.012C862.581 467.027 862.968 466.184 863.249 465.48C863.53 464.754 863.753 464.18 863.917 463.758C864.105 463.312 864.351 462.727 864.655 462C865.452 460.055 866.554 457.582 867.96 454.582C868.171 454.488 868.394 454.441 868.628 454.441C869.214 454.441 869.636 454.594 869.894 454.898C869.988 455.016 870.034 455.156 870.034 455.32C870.034 455.461 870.011 455.602 869.964 455.742L859.277 484.254Z" fill="black"/>
<path d="M174.176 73.4375C173.543 71.75 172.371 69.2422 170.66 65.9141C168.949 62.5625 167.812 60.3359 167.25 59.2344C166.008 56.6797 165.387 55.1797 165.387 54.7344C165.387 54.4297 165.984 54.043 167.18 53.5742C168 55.0977 168.762 56.6211 169.465 58.1445C170.191 59.6445 170.906 61.0625 171.609 62.3984C173.273 65.6562 174.633 67.9062 175.688 69.1484C176.062 68.7734 176.906 67.1797 178.219 64.3672L181.102 58.2852C182.648 55.0039 183.645 52.8594 184.09 51.8516C184.91 50.8672 185.602 50.375 186.164 50.375C186.727 50.375 187.008 50.8672 187.008 51.8516L177.023 73.7539C176.625 74.0117 176.109 74.1406 175.477 74.1406C174.867 74.1406 174.434 73.9062 174.176 73.4375ZM200.536 68.1641C198.778 70.9297 196.434 72.6406 193.505 73.2969C192.825 73.4375 192.204 73.5078 191.641 73.5078C191.102 73.5078 190.645 73.5078 190.27 73.5078C189.919 73.4844 189.52 73.4258 189.075 73.332C188.63 73.2383 188.22 73.0859 187.845 72.875C186.977 72.3828 186.544 71.6914 186.544 70.8008C186.45 70.3789 186.403 69.9102 186.403 69.3945C186.403 68.8555 186.52 68.1523 186.755 67.2852C186.989 66.418 187.411 65.4805 188.02 64.4727C188.653 63.4648 189.415 62.5391 190.305 61.6953C192.157 59.9141 194.161 58.7656 196.317 58.25C196.95 58.1094 197.524 58.0391 198.04 58.0391C198.579 58.0391 199.059 58.0742 199.481 58.1445C200.841 58.1445 201.755 59.0703 202.223 60.9219C202.528 62.0938 202.704 63.7344 202.751 65.8438C202.821 67.9297 202.88 69.5469 202.927 70.6953C202.997 71.8203 203.149 72.8516 203.384 73.7891H201.309C201.216 73.1562 201.145 72.5938 201.098 72.1016C201.052 71.6094 201.005 71.1523 200.958 70.7305C200.841 69.7461 200.7 68.8906 200.536 68.1641ZM200.395 62.7148C200.395 61.3555 199.727 60.6758 198.391 60.6758C198.227 60.6523 198.063 60.6406 197.899 60.6406C196.188 60.6406 194.384 61.4609 192.485 63.1016C191.595 63.8516 190.833 64.6953 190.2 65.6328C189.263 66.9688 188.794 68.1641 188.794 69.2188C188.794 70.6016 189.591 71.4219 191.184 71.6797C193.294 71.6328 195.309 70.6719 197.231 68.7969C198.052 67.9766 198.731 67.0859 199.27 66.125C200.02 64.8359 200.395 63.6992 200.395 62.7148ZM203.869 60.3594C203.822 59.0938 203.775 57.9688 203.728 56.9844C203.681 55.9766 203.646 55.2383 203.623 54.7695C203.623 54.2773 203.435 53.0938 203.06 51.2188C203.271 50.9375 203.47 50.668 203.658 50.4102C203.869 50.1523 204.162 50.0234 204.537 50.0234C205.357 50.0234 205.99 53.4805 206.435 60.3945C206.67 64.4023 206.787 68.4102 206.787 72.418C206.787 73.4961 206.037 74.0352 204.537 74.0352L204.255 74C204.255 72.7812 204.22 71.2227 204.15 69.3242C204.08 67.4258 204.021 65.7734 203.974 64.3672C203.951 62.9609 203.916 61.625 203.869 60.3594ZM206.92 69.3242C206.92 68.9492 206.885 68.4336 206.815 67.7773C206.768 67.0977 206.721 66.3594 206.674 65.5625C206.627 64.7656 206.604 63.957 206.604 63.1367C206.604 62.3164 206.674 61.5664 206.815 60.8867C207.12 59.3633 207.752 58.6016 208.713 58.6016C209.37 58.7891 209.803 59.0234 210.014 59.3047C210.248 59.5859 210.366 59.9375 210.366 60.3594C210.366 60.7578 210.26 61.2617 210.049 61.8711C209.276 63.9102 208.889 65.75 208.889 67.3906C208.889 67.9297 208.924 68.5039 208.995 69.1133C209.37 70.6836 210.659 71.4688 212.862 71.4688C214.01 71.4688 215.1 71.2695 216.131 70.8711C218.1 70.1445 219.436 69.2891 220.139 68.3047C220.35 67.2266 220.455 66.2891 220.455 65.4922C220.455 64.6719 220.42 63.9453 220.35 63.3125C220.303 62.6797 220.233 61.9883 220.139 61.2383C220.069 60.4648 220.022 59.6211 219.998 58.707C220.303 58.5664 220.596 58.4961 220.877 58.4961C221.182 58.4961 221.487 58.6484 221.791 58.9531C222.12 59.2578 222.389 59.832 222.6 60.6758C222.834 61.5195 222.987 62.5156 223.057 63.6641C223.127 64.7891 223.162 65.9609 223.162 67.1797C223.186 68.3984 223.198 69.582 223.198 70.7305C223.198 71.8555 223.245 72.8281 223.338 73.6484C223.057 73.9062 222.787 74.0352 222.53 74.0352C221.592 74.0352 220.901 73.0977 220.455 71.2227C220.151 71.4805 219.635 71.7969 218.909 72.1719C217.362 73.0156 215.534 73.5781 213.424 73.8594C213.026 73.9062 212.58 73.9297 212.088 73.9297C211.596 73.9297 210.975 73.8359 210.225 73.6484C209.498 73.4609 208.807 73.0273 208.151 72.3477C207.495 71.668 207.084 70.6602 206.92 69.3242ZM230.749 71.5391C232.812 71.5391 235.917 70.6016 240.066 68.7266C240.323 68.7266 240.534 68.8203 240.698 69.0078C240.862 69.1719 240.945 69.3711 240.945 69.6055C240.007 71.1992 238.214 72.4414 235.566 73.332C232.917 74.2227 230.445 74.375 228.148 73.7891C225.546 73.1094 223.964 71.6445 223.402 69.3945C223.355 68.9492 223.331 68.3516 223.331 67.6016C223.331 66.8516 223.519 65.8672 223.894 64.6484C224.292 63.4062 224.96 62.2344 225.898 61.1328C226.835 60.0312 227.937 59.1641 229.202 58.5312C230.468 57.8984 231.816 57.582 233.245 57.582C234.605 57.582 236.128 58.0508 237.816 58.9883C238.612 59.4336 239.245 59.9375 239.714 60.5C240.183 61.0625 240.417 61.6367 240.417 62.2227C240.417 62.3867 240.405 62.5508 240.382 62.7148C240.335 64.1445 239.644 65.0469 238.308 65.4219C237.722 65.5859 237.042 65.668 236.269 65.668L231.206 65.457C229.519 65.457 228.23 65.8203 227.339 66.5469C226.823 66.9453 226.46 67.543 226.249 68.3398C226.835 70.4727 228.335 71.5391 230.749 71.5391ZM237.007 60.6758C236.491 60.3008 235.952 60.0312 235.39 59.8672C234.827 59.7031 234.359 59.6211 233.984 59.6211C233.609 59.6211 232.999 59.75 232.155 60.0078C231.312 60.2422 230.562 60.5117 229.905 60.8164C228.288 61.5664 227.48 62.3516 227.48 63.1719C229.355 63.3359 230.761 63.418 231.698 63.418C234.3 63.418 236.058 63.1953 236.972 62.75C237.534 62.5156 237.816 62.2227 237.816 61.8711C237.816 61.4492 237.546 61.0508 237.007 60.6758ZM257.883 45.7695C257.883 48.0195 257.812 50.2227 257.672 52.3789C257.555 54.5117 257.438 56.6094 257.32 58.6719C257.227 60.7109 257.18 62.8906 257.18 65.2109C257.18 67.5078 257.344 69.9453 257.672 72.5234C257.672 73.0625 257.566 73.4492 257.355 73.6836C257.168 73.918 256.84 74.0352 256.371 74.0352C255.27 74.0352 254.719 73.1211 254.719 71.293V70.1328C251.391 72.6172 248.578 73.8594 246.281 73.8594C245.367 73.8594 244.43 73.6367 243.469 73.1914C242.531 72.7461 241.641 71.8438 240.797 70.4844C240.68 69.9219 240.621 69.3477 240.621 68.7617C240.621 68.1758 240.727 67.4727 240.938 66.6523C241.172 65.8086 241.629 64.9414 242.309 64.0508C243.012 63.1602 243.855 62.375 244.84 61.6953C246.996 60.2422 249.328 59.5156 251.836 59.5156C252.914 59.5156 253.945 59.6797 254.93 60.0078C254.93 59.5859 254.953 58.8477 255 57.793C255.07 56.7383 255.141 55.625 255.211 54.4531C255.352 51.4062 255.445 49.6133 255.492 49.0742C255.539 48.5117 255.598 48.043 255.668 47.668C255.762 47.2695 255.891 46.9297 256.055 46.6484C256.406 46.0625 257.016 45.7695 257.883 45.7695ZM243.188 68.4805C243.188 70.332 243.855 71.2578 245.191 71.2578C245.402 71.2578 245.637 71.2344 245.895 71.1875C246.855 71.1875 248.039 70.9062 249.445 70.3438C252.117 69.2891 253.746 68.375 254.332 67.6016V62.9258C254.332 62.1055 253.664 61.6953 252.328 61.6953C252.164 61.6719 251.941 61.6602 251.66 61.6602C251.402 61.6602 250.992 61.7188 250.43 61.8359C249.867 61.9531 249.234 62.1641 248.531 62.4688C247.828 62.7734 247.137 63.1484 246.457 63.5938C245.027 64.5547 244.043 65.6797 243.504 66.9688C243.293 67.4609 243.188 67.9648 243.188 68.4805ZM270.349 69.3242C270.349 68.9492 270.314 68.4336 270.244 67.7773C270.197 67.0977 270.15 66.3594 270.103 65.5625C270.056 64.7656 270.033 63.957 270.033 63.1367C270.033 62.3164 270.103 61.5664 270.244 60.8867C270.548 59.3633 271.181 58.6016 272.142 58.6016C272.798 58.7891 273.232 59.0234 273.443 59.3047C273.677 59.5859 273.795 59.9375 273.795 60.3594C273.795 60.7578 273.689 61.2617 273.478 61.8711C272.705 63.9102 272.318 65.75 272.318 67.3906C272.318 67.9297 272.353 68.5039 272.423 69.1133C272.798 70.6836 274.088 71.4688 276.291 71.4688C277.439 71.4688 278.529 71.2695 279.56 70.8711C281.529 70.1445 282.865 69.2891 283.568 68.3047C283.779 67.2266 283.884 66.2891 283.884 65.4922C283.884 64.6719 283.849 63.9453 283.779 63.3125C283.732 62.6797 283.662 61.9883 283.568 61.2383C283.498 60.4648 283.451 59.6211 283.427 58.707C283.732 58.5664 284.025 58.4961 284.306 58.4961C284.611 58.4961 284.916 58.6484 285.22 58.9531C285.548 59.2578 285.818 59.832 286.029 60.6758C286.263 61.5195 286.416 62.5156 286.486 63.6641C286.556 64.7891 286.591 65.9609 286.591 67.1797C286.615 68.3984 286.627 69.582 286.627 70.7305C286.627 71.8555 286.673 72.8281 286.767 73.6484C286.486 73.9062 286.216 74.0352 285.959 74.0352C285.021 74.0352 284.33 73.0977 283.884 71.2227C283.58 71.4805 283.064 71.7969 282.338 72.1719C280.791 73.0156 278.963 73.5781 276.853 73.8594C276.455 73.9062 276.009 73.9297 275.517 73.9297C275.025 73.9297 274.404 73.8359 273.654 73.6484C272.927 73.4609 272.236 73.0273 271.58 72.3477C270.923 71.668 270.513 70.6602 270.349 69.3242ZM299.03 64.9297C301.608 64.9297 302.897 65.5859 302.897 66.8984C302.897 67.8828 302.182 69.0312 300.752 70.3438C298.62 72.2891 295.748 73.8477 292.139 75.0195C291.975 75.0195 291.787 74.8555 291.577 74.5273C291.389 74.1992 291.237 73.9531 291.12 73.7891C291.026 73.6016 290.955 73.4844 290.909 73.4375C293.604 72.5469 295.819 71.4688 297.553 70.2031C298.725 69.3594 299.311 68.668 299.311 68.1289C299.311 67.5898 298.62 67.3203 297.237 67.3203C295.854 67.3203 293.827 67.6484 291.155 68.3047C289.936 68.2578 288.881 67.8242 287.991 67.0039C287.217 66.2773 286.83 65.5508 286.83 64.8242C286.83 64.0742 287.041 63.3945 287.463 62.7852C287.885 62.1523 288.448 61.5664 289.151 61.0273C289.854 60.4883 290.674 59.9961 291.612 59.5508C293.909 58.4492 296.287 57.8984 298.748 57.8984C299.475 57.8984 300.178 57.9688 300.858 58.1094C301.42 58.1094 301.748 58.3555 301.842 58.8477C301.936 59.3398 301.983 60.1484 301.983 61.2734C300.6 60.6406 299.041 60.3242 297.307 60.3242C295.151 60.3242 293.37 60.7578 291.963 61.625C290.51 62.4688 289.76 63.5703 289.713 64.9297C289.713 65.5859 290.194 65.9141 291.155 65.9141L293.721 65.6328C295.924 65.1641 297.694 64.9297 299.03 64.9297ZM310.448 71.5391C312.511 71.5391 315.616 70.6016 319.765 68.7266C320.023 68.7266 320.234 68.8203 320.398 69.0078C320.562 69.1719 320.644 69.3711 320.644 69.6055C319.706 71.1992 317.913 72.4414 315.265 73.332C312.616 74.2227 310.144 74.375 307.847 73.7891C305.245 73.1094 303.663 71.6445 303.101 69.3945C303.054 68.9492 303.03 68.3516 303.03 67.6016C303.03 66.8516 303.218 65.8672 303.593 64.6484C303.991 63.4062 304.659 62.2344 305.597 61.1328C306.534 60.0312 307.636 59.1641 308.902 58.5312C310.167 57.8984 311.515 57.582 312.945 57.582C314.304 57.582 315.827 58.0508 317.515 58.9883C318.312 59.4336 318.945 59.9375 319.413 60.5C319.882 61.0625 320.116 61.6367 320.116 62.2227C320.116 62.3867 320.105 62.5508 320.081 62.7148C320.034 64.1445 319.343 65.0469 318.007 65.4219C317.421 65.5859 316.741 65.668 315.968 65.668L310.905 65.457C309.218 65.457 307.929 65.8203 307.038 66.5469C306.523 66.9453 306.159 67.543 305.948 68.3398C306.534 70.4727 308.034 71.5391 310.448 71.5391ZM316.706 60.6758C316.191 60.3008 315.652 60.0312 315.089 59.8672C314.527 59.7031 314.058 59.6211 313.683 59.6211C313.308 59.6211 312.698 59.75 311.855 60.0078C311.011 60.2422 310.261 60.5117 309.605 60.8164C307.988 61.5664 307.179 62.3516 307.179 63.1719C309.054 63.3359 310.46 63.418 311.398 63.418C313.999 63.418 315.757 63.1953 316.671 62.75C317.234 62.5156 317.515 62.2227 317.515 61.8711C317.515 61.4492 317.245 61.0508 316.706 60.6758ZM338.215 61.168C337.23 60.4648 335.965 60.1133 334.418 60.1133C332.965 60.1133 331.617 60.3828 330.375 60.9219C328.031 61.9062 326.426 63.1719 325.559 64.7188C325.184 65.4219 324.996 66.1719 324.996 66.9688C324.996 67.1094 324.996 67.5078 324.996 68.1641C324.996 68.7969 325.113 69.6641 325.348 70.7656C325.582 71.8438 325.699 72.9453 325.699 74.0703C325.207 74.0938 324.809 74.1523 324.504 74.2461C324.199 74.3398 323.941 74.3867 323.73 74.3867C323.52 74.3867 323.332 74.293 323.168 74.1055C323.027 73.918 322.863 73.5547 322.676 73.0156C322.652 72.875 322.605 72.4766 322.535 71.8203C322.465 71.1641 322.371 70.3672 322.254 69.4297C322.16 68.4922 322.043 67.4727 321.902 66.3711C321.785 65.2461 321.668 64.1445 321.551 63.0664C321.293 60.7227 321.094 59 320.953 57.8984C320.953 57.3359 321.363 57.0547 322.184 57.0547C322.676 57.0547 323.062 57.2656 323.344 57.6875C323.625 58.0859 323.848 58.5547 324.012 59.0938C324.176 59.6094 324.281 60.125 324.328 60.6406C324.398 61.1562 324.457 61.5195 324.504 61.7305C327.598 58.9648 331.441 57.582 336.035 57.582C336.551 57.582 337.09 57.5938 337.652 57.6172C337.793 57.5938 337.969 57.582 338.18 57.582C338.391 57.582 338.602 57.7227 338.812 58.0039C339.07 58.332 339.199 58.7305 339.199 59.1992C339.199 60.3711 338.871 61.0273 338.215 61.168Z" fill="black"/>
<line x1="165" y1="85.5" x2="427" y2="85.5" stroke="black"/>
<line x1="48" y1="166.5" x2="893.001" y2="166.5" stroke="black"/>
<line x1="48" y1="268.5" x2="893.001" y2="268.5" stroke="black"/>
<line x1="48" y1="370.5" x2="893.001" y2="370.5" stroke="black"/>
<line x1="613" y1="482.5" x2="875" y2="482.5" stroke="black"/>
</svg>
